<svg xmlns="http://www.w3.org/2000/svg" version="1.1" xmlns:xlink="http://www.w3.org/1999/xlink" width="512" height="512" x="0" y="0" viewBox="0 0 471 472" style="enable-background:new 0 0 512 512" xml:space="preserve" class=""><g><path fill="#0073e2" d="M256.5 0h208v448h-208zm0 0" opacity="1" data-original="#e3584b" class=""></path><path fill="#cc4f43" d="M256.5 144h208v16h-208zm0 0" opacity="1" data-original="#cc4f43"></path><path fill="#d6d9db" d="M288.5 48h16v80h-16zM288.5 176h16v112h-16zm0 0" opacity="1" data-original="#d6d9db" class=""></path><path fill="#0a4a7a" d="M264.5 448h16v24h-16zM440.5 448h16v24h-16zm0 0" opacity="1" data-original="#0a4a7a"></path><path fill="#4398d1" d="M.5 168h224v280H.5zm0 0" opacity="1" data-original="#4398d1" class=""></path><g fill="#2d81ba"><path d="M.5 224h224v16H.5zM24.5 192h16v16h-16zM56.5 192h16v16h-16zM88.5 192h16v16h-16zM152.5 192h48v16h-48zm0 0" fill="#2d81ba" opacity="1" data-original="#2d81ba" class=""></path></g><path fill="#ffa217" d="M.5 0h224v136H.5zm0 0" opacity="1" data-original="#ffa217" class=""></path><path fill="#87ced9" d="M32.5 32h96v72h-96zm0 0" opacity="1" data-original="#87ced9" class=""></path><path fill="#0a4a7a" d="M8.5 448h16v24h-16zM200.5 448h16v24h-16zm0 0" opacity="1" data-original="#0a4a7a"></path><path fill="#3e8dc2" d="M208.5 344c0 48.602-39.398 88-88 88s-88-39.398-88-88 39.398-88 88-88 88 39.398 88 88zm0 0" opacity="1" data-original="#3e8dc2" class=""></path><path fill="#d6d9db" d="M192.5 336c0 44.184-35.816 80-80 80s-80-35.816-80-80 35.816-80 80-80 80 35.816 80 80zm0 0" opacity="1" data-original="#d6d9db" class=""></path><path fill="#71c4d1" d="M168.5 336c0 30.93-25.07 56-56 56s-56-25.07-56-56 25.07-56 56-56 56 25.07 56 56zm0 0" opacity="1" data-original="#71c4d1" class=""></path><path fill="#87ced9" d="M152.5 336c0 22.09-17.91 40-40 40s-40-17.91-40-40 17.91-40 40-40 40 17.91 40 40zm0 0" opacity="1" data-original="#87ced9" class=""></path><path fill="#d6d9db" d="M169.066 279.434 136.5 312v48l32.566 32.566c31.243-31.238 31.243-81.894 0-113.132zm0 0" opacity="1" data-original="#d6d9db" class=""></path><path fill="#71c4d1" d="M32.5 32h96v16h-96zm0 0" opacity="1" data-original="#71c4d1" class=""></path><path fill="#eb8b23" d="M184.5 24h16v16h-16zM184.5 56h16v16h-16zM192.5 92c-6.629 0-12 5.371-12 12s5.371 12 12 12 12-5.371 12-12-5.371-12-12-12zM152.5 0h16v136h-16zm0 0" opacity="1" data-original="#eb8b23" class=""></path><path fill="#cf4e42" d="M304.5 48v80h-16v16h32V48zM304.5 176v112h-16v16h32V176zm0 0" opacity="1" data-original="#cf4e42" class=""></path></g></svg>