<svg xmlns="http://www.w3.org/2000/svg" version="1.1" xmlns:xlink="http://www.w3.org/1999/xlink" width="512" height="512" x="0" y="0" viewBox="0 0 64 64" style="enable-background:new 0 0 512 512" xml:space="preserve" class=""><g><g data-name="02-Shopping"><path fill="#628c1b" d="m31 10 3-1-2 3v.3a13.687 13.687 0 0 0-3-.3 13.687 13.687 0 0 0-3 .3V12l-2-3 2.95 1L29 8z" opacity="1" data-original="#628c1b" class=""></path><path fill="#99343b" d="M29 12a13.687 13.687 0 0 1 3 .3c2.93.62 5 2.34 5 5.7a8 8 0 0 1-16 0c0-3.36 2.07-5.08 5-5.7a13.687 13.687 0 0 1 3-.3z" opacity="1" data-original="#99343b" class=""></path><path fill="#7d2a30" d="M31.5 23h-1a5.5 5.5 0 0 1-.637-10.96C29.576 12.025 29.3 12 29 12a13.687 13.687 0 0 0-3 .3c-2.93.62-5 2.34-5 5.7a8 8 0 0 0 16 0c0-.069-.014-.126-.015-.193A5.5 5.5 0 0 1 31.5 23z" opacity="1" data-original="#7d2a30"></path><path fill="#8ea241" d="M16.98 53.7a2.015 2.015 0 0 1-3.99.57L11.02 40.3c-.01-.1-.02-.2-.02-.29a2.015 2.015 0 0 1 4.01-.28zM28 40v14a2 2 0 0 1-4 0V40a2.006 2.006 0 0 1 2-2 2.015 2.015 0 0 1 2 2zM53 40.01c0 .09-.01.19-.02.29l-1.97 13.97a2.015 2.015 0 0 1-3.99-.57l1.97-13.97a2.015 2.015 0 0 1 4.01.28zM40 40v14a2 2 0 0 1-4 0V40a2.006 2.006 0 0 1 2-2 2.015 2.015 0 0 1 2 2z" opacity="1" data-original="#8ea241" class=""></path><g fill="#628c1b"><path d="M12 42.01a2.012 2.012 0 0 1 1.74-1.99 1.981 1.981 0 0 1 1.353.3l-.083-.588a2.015 2.015 0 0 0-4.01.28c0 .09.01.19.02.29l1.97 13.97a1.987 1.987 0 0 0 .917 1.412L12.02 42.3c-.01-.1-.02-.2-.02-.29zM27 40a1.959 1.959 0 0 1 1 .279V40a2.015 2.015 0 0 0-2-2 2.006 2.006 0 0 0-2 2v14a2 2 0 0 0 1 1.721V42a2.006 2.006 0 0 1 2-2zM49.99 41.73a2.012 2.012 0 0 1 2.992-1.463c.009-.088.018-.177.018-.257a2.015 2.015 0 0 0-4.01-.28L47.02 53.7a2 2 0 0 0 1 2.034V55.7zM39 40a1.959 1.959 0 0 1 1 .279V40a2.015 2.015 0 0 0-2-2 2.006 2.006 0 0 0-2 2v14a2 2 0 0 0 1 1.721V42a2.006 2.006 0 0 1 2-2z" fill="#628c1b" opacity="1" data-original="#628c1b" class=""></path></g><path fill="#88ab00" d="M44 7H20V1h24v3z" opacity="1" data-original="#88ab00" class=""></path><path fill="#478aa9" d="m60 33-3.54 26.53A3.991 3.991 0 0 1 52.5 63h-41a3.991 3.991 0 0 1-3.96-3.47L4 33zm-7.02 7.3c.01-.1.02-.2.02-.29a2.015 2.015 0 0 0-4.01-.28L47.02 53.7a2.015 2.015 0 0 0 3.99.57zM40 54V40a2.015 2.015 0 0 0-2-2 2.006 2.006 0 0 0-2 2v14a2 2 0 0 0 4 0zm-12 0V40a2.015 2.015 0 0 0-2-2 2.006 2.006 0 0 0-2 2v14a2 2 0 0 0 4 0zm-12.74 1.98a2.006 2.006 0 0 0 1.72-2.28l-1.97-13.97a2.015 2.015 0 0 0-4.01.28c0 .09.01.19.02.29l1.97 13.97a2 2 0 0 0 2.27 1.71z" opacity="1" data-original="#fad27a" class=""></path><path fill="#88ab00" d="M60 33H2a1 1 0 0 1-1-1v-6a1 1 0 0 1 1-1h60a1 1 0 0 1 1 1v6a1 1 0 0 1-1 1z" opacity="1" data-original="#88ab00" class=""></path><path fill="#cedada" d="M58 25h-2V10a5.006 5.006 0 0 0-5-5h-7V3h7a7.008 7.008 0 0 1 7 7zM8 25H6V10a7.008 7.008 0 0 1 7-7h7v2h-7a5.006 5.006 0 0 0-5 5z" opacity="1" data-original="#cedada" class=""></path><path fill="#628c1b" d="M20 1v6h24V1h-3a3 3 0 0 1-3 3H26a3 3 0 0 1-3-3zM62 25h-7.5a2.5 2.5 0 0 1 0 5h-45a2.5 2.5 0 0 1 0-5H2a1 1 0 0 0-1 1v6a1 1 0 0 0 1 1h60a1 1 0 0 0 1-1v-6a1 1 0 0 0-1-1z" opacity="1" data-original="#628c1b" class=""></path><path fill="#276096" d="M53.612 60H23.1a11.482 11.482 0 0 1-8.821-4.134 2 2 0 0 1-1.286-1.6l-.055-.393a11.478 11.478 0 0 1-1.092-7.741L11.02 40.3c-.01-.1-.02-.2-.02-.29a2.015 2.015 0 0 1 4.01-.28l.076.535A11.425 11.425 0 0 1 23.1 37h36.366L60 33H4l3.54 26.53A3.991 3.991 0 0 0 11.5 63h41a3.991 3.991 0 0 0 3.96-3.47l.115-.858A3.988 3.988 0 0 1 53.612 60z" opacity="1" data-original="#f5b662" class=""></path><rect width="36" height="3" x="14" y="25" fill="#accc5f" rx="1.5" opacity="1" data-original="#accc5f" class=""></rect><path fill="#a3b7b6" d="M56 22h2v3h-2zM6 22h2v3H6zM44 3h4v2h-4zM16 3h4v2h-4z" opacity="1" data-original="#a3b7b6" class=""></path><rect width="12" height="2" x="26" y="2" fill="#accc5f" rx="1" opacity="1" data-original="#accc5f" class=""></rect><path fill="#88ab00" d="M34 16.54V14a2.006 2.006 0 0 1 2-2 2.015 2.015 0 0 1 2 2v2.54a3.974 3.974 0 0 0-4 0z" opacity="1" data-original="#88ab00" class=""></path><path fill="#ff8b26" d="M32 24a3.657 3.657 0 0 0 .13 1h-3a3.657 3.657 0 0 1-.13-1l-1-4a3.691 3.691 0 0 1 .12-.95A3.991 3.991 0 0 1 32 16a2.427 2.427 0 0 1 1.85.63A3.993 3.993 0 0 0 32 20zM39.87 25a3.657 3.657 0 0 0 .13-1v-4a4.025 4.025 0 0 0-1.17-2.83 3.937 3.937 0 0 0-.68-.54A2.427 2.427 0 0 1 40 16a4 4 0 0 1 4 4l-1 4a3.657 3.657 0 0 1-.13 1z" opacity="1" data-original="#ff8b26" class=""></path><path fill="#faab1b" d="M38.15 16.63a3.937 3.937 0 0 1 .68.54A4.025 4.025 0 0 1 40 20v4a3.657 3.657 0 0 1-.13 1h-7.74a3.657 3.657 0 0 1-.13-1v-4a3.993 3.993 0 0 1 1.85-3.37l.15-.09a3.974 3.974 0 0 1 4 0z" opacity="1" data-original="#faab1b"></path><path fill="#cedada" d="M1.03 1.029s7.19-.56 12.8 3.21c.27.17.53.36.79.56.05.47-.02 1.791-1.63 3.961a19.566 19.566 0 0 1-1.97 2.26 19.566 19.566 0 0 1-2.26 1.97c-2.17 1.61-3.49 1.68-3.96 1.63C.42 8.92 1.03 1.029 1.03 1.029z" opacity="1" data-original="#cedada" class=""></path><path fill="#a3b7b6" d="M8.88 13.16 12.72 17l.05.09a4.943 4.943 0 0 0-2.49 2.95l-.11-.04a202.08 202.08 0 0 1-3.16-3.01c-.35-.34-.68-.67-.99-.98a13.194 13.194 0 0 1-1.22-1.39c.47.05 1.79-.02 3.96-1.63zM28 20l1 4a3.657 3.657 0 0 0 .13 1h-3.71a8.093 8.093 0 0 0 .58-3c0-3.36-2.07-5.08-5-5.7V16l1.83-2.74c1.91 2.09 3.73 4.13 5.17 5.76l.12.03A3.691 3.691 0 0 0 28 20z" opacity="1" data-original="#a3b7b6" class=""></path><path fill="#2999cd" d="m13 13 2 3v.3a8.061 8.061 0 0 0-2.23.79l-.05-.09-3.84-3.84-.12-.17a19.566 19.566 0 0 0 2.26-1.97 19.566 19.566 0 0 0 1.97-2.26l.17.12L17 12.72l.13.13L15.95 14z" opacity="1" data-original="#516667" class=""></path><path fill="#b8cfcd" d="M22.69 13.1 20 14l-2-2-.87.85-.13-.13-3.84-3.84-.17-.12c1.61-2.17 1.68-3.491 1.63-3.96a13.092 13.092 0 0 1 1.39 1.22c1.98 1.98 4.38 4.56 6.68 7.08z" opacity="1" data-original="#b8cfcd" class=""></path><path fill="#56d5f8" d="M49 9h8a1 1 0 0 1 1 1v2H48v-2a1 1 0 0 1 1-1z" opacity="1" data-original="#56d5f8"></path><path fill="#99efff" d="m58 12 4 5H51l-3-5z" opacity="1" data-original="#99efff"></path><path fill="#0b4c8c" d="M51 17h11v8H51z" opacity="1" data-original="#69e5fd" class=""></path><path fill="#ff8b26" d="M32 24a3.657 3.657 0 0 0 .13 1h-3a3.657 3.657 0 0 1-.13-1l-1-4a3.691 3.691 0 0 1 .12-.95A3.991 3.991 0 0 1 32 16a2.427 2.427 0 0 1 1.85.63A3.993 3.993 0 0 0 32 20zM40 16a4 4 0 0 1 4 4l-1 4a3.657 3.657 0 0 1-.13 1h-3a3.657 3.657 0 0 0 .13-1v-4a4.025 4.025 0 0 0-1.17-2.83 3.937 3.937 0 0 0-.68-.54A2.427 2.427 0 0 1 40 16z" opacity="1" data-original="#ff8b26" class=""></path><path fill="#88ab00" d="m20 14 2.69-.9a1.07 1.07 0 0 1 .14.16L21 16v.3a13.687 13.687 0 0 0-3-.3 13.687 13.687 0 0 0-3 .3V16l-2-3 2.95 1 1.18-1.15L18 12z" opacity="1" data-original="#88ab00" class=""></path><path fill="#cc464f" d="M15 16.3a13.687 13.687 0 0 1 3-.3 13.687 13.687 0 0 1 3 .3c2.93.62 5 2.34 5 5.7a8.093 8.093 0 0 1-.58 3H10.58a8.093 8.093 0 0 1-.58-3 6.576 6.576 0 0 1 .28-1.96 4.943 4.943 0 0 1 2.49-2.95A8.061 8.061 0 0 1 15 16.3z" opacity="1" data-original="#cc464f" class=""></path><path fill="#276096" d="M51 17h-7v8h7z" opacity="1" data-original="#01a3ec" class=""></path><path fill="#0191d8" d="M49.054 13.756 48 12l-4 5h1z" opacity="1" data-original="#0191d8"></path><path fill="#006cbf" d="m51 17-1.946-3.244L45 17h-1z" opacity="1" data-original="#006cbf" class=""></path><path fill="#30cfff" d="M51 17v8h11v-2h-3a5 5 0 0 1-5-5v-1z" opacity="1" data-original="#30cfff" class=""></path><path fill="#0b4c8c" d="M51.142 12H48l3 5h3z" opacity="1" data-original="#69e5fd" class=""></path><path fill="#01c1ff" d="M50 9h-1a1 1 0 0 0-1 1v2h10v-1h-6a2 2 0 0 1-2-2z" opacity="1" data-original="#01c1ff" class=""></path><path fill="#99343b" d="M16.5 23a3.5 3.5 0 0 1-1.37-6.721c-.042.009-.088.011-.13.02a8.061 8.061 0 0 0-2.23.79 4.945 4.945 0 0 0-2.49 2.951A6.576 6.576 0 0 0 10 22a8.093 8.093 0 0 0 .58 3h14.84a8.2 8.2 0 0 0 .51-2z" opacity="1" data-original="#99343b" class=""></path><path fill="#628c1b" d="M22.69 13.1 20 14v1h-4v-1.049l-.05.049L13 13l2 3v.3a13.687 13.687 0 0 1 3-.3 13.687 13.687 0 0 1 3 .3V16l1.83-2.74a1.07 1.07 0 0 0-.14-.16z" opacity="1" data-original="#628c1b" class=""></path><path fill="#ff5863" d="M24 23a1 1 0 0 1-1-1c0-1.626-.916-3-2-3a1 1 0 0 1 0-2c2.243 0 4 2.2 4 5a1 1 0 0 1-1 1z" opacity="1" data-original="#ff5863" class=""></path><path fill="#f37924" d="m43 24 .25-1H43a1 1 0 0 1-1-1v-3a2.191 2.191 0 0 0-.5-1.358 1.021 1.021 0 0 1 .047-1.333A4.011 4.011 0 0 0 40 16a2.427 2.427 0 0 0-1.85.63 3.937 3.937 0 0 1 .68.54 4.127 4.127 0 0 1 .517.652A3.989 3.989 0 0 1 40 20v4a3.645 3.645 0 0 1-.13 1h3a3.657 3.657 0 0 0 .13-1zM32 24v-4a3.993 3.993 0 0 1 1.85-3.37A2.427 2.427 0 0 0 32 16a3.963 3.963 0 0 0-1.534.319 1.023 1.023 0 0 1 .037 1.324A2.191 2.191 0 0 0 30 19v3a1 1 0 0 1-1 1h-.25l.25 1a3.657 3.657 0 0 0 .13 1h3a3.645 3.645 0 0 1-.13-1z" opacity="1" data-original="#f37924" class=""></path><path fill="#ff9b00" d="M34 21v-3a2 2 0 0 1 2-2 3.989 3.989 0 0 0-2 .54l-.15.09A4 4 0 0 0 32 20v4a3.657 3.657 0 0 0 .13 1h7.74a3.657 3.657 0 0 0 .13-1v-1h-4a2 2 0 0 1-2-2z" opacity="1" data-original="#ff9b00"></path><path fill="#628c1b" d="M36.5 15a1.5 1.5 0 0 1-.249-2.975A1.888 1.888 0 0 0 36 12a2.006 2.006 0 0 0-2 2v2.54a3.974 3.974 0 0 1 4 0V15z" opacity="1" data-original="#628c1b" class=""></path><path fill="#b8cfcd" d="M13.83 4.239c-.116-.077-.236-.143-.353-.217a28.08 28.08 0 0 1-4.753 4.92 2.956 2.956 0 0 1-3.856-.235C2.487 6.352 1.208 1.782 1.026 1.1.983 1.768.621 9.182 4.8 14.62c.47.05 1.79-.02 3.96-1.63a19.566 19.566 0 0 0 2.26-1.97 19.566 19.566 0 0 0 1.97-2.26c1.61-2.171 1.68-3.491 1.63-3.96-.26-.2-.52-.391-.79-.561z" opacity="1" data-original="#b8cfcd" class=""></path><circle cx="8.5" cy="5.5" r="1.5" fill="#2c3d45" opacity="1" data-original="#2c3d45" class=""></circle><path fill="#839d9c" d="M4 4 2.806 1.013c-1.1-.035-1.776.016-1.776.016v.045C1.189 1.517 2.178 4 4 4z" opacity="1" data-original="#839d9c" class=""></path><circle cx="8.5" cy="5.5" r=".5" fill="#ffffff" opacity="1" data-original="#ffffff" class=""></circle><path fill="#0b4c8c" d="m8.76 12.99.12.17L12.72 17l.05.09A8.061 8.061 0 0 1 15 16.3V16l-4.487-4.488A18.489 18.489 0 0 1 8.76 12.99zM17.13 12.85l-.13-.13-3.84-3.84-.17-.12c-.28.382-.615.793-1 1.229l3.986 3.986z" opacity="1" data-original="#3e5857" class=""></path><path fill="#2999cd" d="m15.95 14 .025-.025-3.986-3.986a23.462 23.462 0 0 1-1.477 1.522L15 16l-2-3z" opacity="1" data-original="#516667" class=""></path><path fill="#839d9c" d="M11.374 11.373a20.343 20.343 0 0 0 2.018-2.316 7.457 7.457 0 0 0 1.73-3.848c-.167-.139-.333-.279-.5-.41s-.328-.234-.492-.348a.482.482 0 0 0-.021.277 1.031 1.031 0 0 1 .016.124c.033.317.022 1.512-1.536 3.613a19.323 19.323 0 0 1-1.92 2.2 19.313 19.313 0 0 1-2.2 1.923c-2.1 1.555-3.292 1.567-3.622 1.532a.857.857 0 0 1-.1-.012.471.471 0 0 0-.286.014c.117.165.223.335.348.5s.27.335.41.5a7.45 7.45 0 0 0 3.845-1.727 20.245 20.245 0 0 0 2.31-2.022z" opacity="1" data-original="#839d9c" class=""></path><path fill="#fbcb00" d="M35.835 19.137c.4.367.73.788 1.135 1.148a2.609 2.609 0 0 0 1.465.715.445.445 0 0 0 .218-.022.391.391 0 0 0 .184-.219 2.16 2.16 0 0 0-.1-1.849A3.611 3.611 0 0 0 35.938 17a.884.884 0 0 0-.914.7c-.144.632.376 1.034.811 1.437z" opacity="1" data-original="#fbcb00" class=""></path></g></g></svg>