<?xml version="1.0" encoding="iso-8859-1"?>
<!-- Generator: Adobe Illustrator 19.0.0, SVG Export Plug-In . SVG Version: 6.00 Build 0)  -->
<svg version="1.1" id="Capa_1" xmlns="http://www.w3.org/2000/svg" xmlns:xlink="http://www.w3.org/1999/xlink" x="0px" y="0px"
	 viewBox="0 0 512.098 512.098" style="enable-background:new 0 0 512.098 512.098;" xml:space="preserve">
<g>
	<path style="fill:#4482C3;" d="M506.753,239.051c-6.231-8.117-13.64-15.258-21.982-21.186v-0.088L444.518,73.092
		c-2.968-11.178-9.098-21.263-17.655-29.043C406.206,25.865,358.802,0,256.049,0S105.892,25.865,85.235,44.05
		c-8.557,7.78-14.688,17.865-17.655,29.043L27.327,217.777v0.088c-8.341,5.928-15.75,13.069-21.981,21.186
		c-3.442,4.616-5.3,10.22-5.297,15.978v10.417c-0.016,8.229,3.8,15.996,10.322,21.013s15.008,6.713,22.958,4.587
		c56.584-15.183,170.726-43.873,222.72-43.873s166.136,28.69,222.72,43.873c7.949,2.126,16.436,0.43,22.958-4.587
		c6.522-5.017,10.338-12.784,10.322-21.013v-10.417C512.052,249.271,510.194,243.667,506.753,239.051z"/>
	<path style="fill:#285680;" d="M512.049,255.029v10.417c0.016,8.229-3.8,15.996-10.322,21.013
		c-6.522,5.017-15.008,6.713-22.958,4.587c-56.584-15.183-170.726-43.873-222.72-43.873s-166.136,28.69-222.72,43.873
		c-7.949,2.126-16.436,0.43-22.958-4.587S0.033,273.674,0.049,265.446v-10.417c-0.003-5.758,1.855-11.362,5.297-15.978
		c6.231-8.117,13.64-15.258,21.982-21.186v-0.088c46.697-33.986,129.147-48.64,181.229-54.731
		c14.919-1.766,27.366-2.825,35.751-3.443c7.819-0.53,15.664-0.53,23.483,0c8.386,0.618,20.832,1.677,35.751,3.443
		c52.083,6.091,134.532,20.745,181.23,54.731v0.088c8.341,5.928,15.75,13.069,21.982,21.186
		C510.194,243.667,512.052,249.271,512.049,255.029z"/>
	<g>
		<path style="fill:#F0C419;" d="M317.842,123.586c0.073,14.434-4.997,28.423-14.301,39.459
			c-14.919-1.766-27.366-2.825-35.751-3.443c-7.819-0.53-15.664-0.53-23.483,0c-8.386,0.618-20.832,1.677-35.751,3.443
			c-9.304-11.036-14.373-25.025-14.301-39.459c0-34.127,27.666-61.793,61.793-61.793S317.842,89.459,317.842,123.586z"/>
		<path style="fill:#F0C419;" d="M512.049,394.946v-32.132c0.109-3.987-2.239-7.632-5.914-9.181
			c-18.361-6.886-75.034-27.012-112.905-27.012c-45.727,0-91.454,19.509-137.181,19.509s-91.454-19.509-137.181-19.509
			c-37.87,0-94.543,20.127-112.905,27.012c-3.675,1.548-6.024,5.194-5.914,9.181v32.132c2.951,2.667,6.046,5.172,9.269,7.503
			c6.566,6.914,11.777,14.999,15.36,23.835L3.315,454.709c-2.12,2.827-3.266,6.265-3.266,9.799v22.334
			c0.011,9.015,7.316,16.32,16.331,16.331h0.088c6.166-0.011,11.8-3.494,14.566-9.004l12.182-24.276
			c4.154,7.746,9.518,14.779,15.89,20.833C75.619,505.12,96.974,512.722,118.868,512c21.734,0.871,43.307-4.065,62.499-14.301
			c14.551-8.769,26.497-21.264,34.604-36.193c7.424-15.61,12.596-32.195,15.36-49.258c3.178-12.977,10.417-27.101,24.717-27.101
			c14.301,0,21.539,14.124,24.717,27.101c2.764,17.063,7.936,33.648,15.36,49.258c8.107,14.93,20.053,27.424,34.604,36.193
			c19.192,10.236,40.766,15.172,62.499,14.301c21.895,0.722,43.249-6.88,59.763-21.274c6.371-6.055,11.736-13.087,15.89-20.833
			l12.182,24.276c2.766,5.51,8.4,8.993,14.566,9.004h0.088c9.015-0.011,16.32-7.316,16.331-16.331v-22.334
			c-0.001-3.533-1.147-6.971-3.266-9.799l-21.363-28.425c3.583-8.836,8.794-16.921,15.36-23.835
			C506.004,400.118,509.098,397.613,512.049,394.946z"/>
	</g>
	<path style="fill:#F29C1F;" d="M43.216,469.892l-12.182,24.276c-2.766,5.51-8.4,8.993-14.566,9.004H16.38
		c-9.015-0.011-16.32-7.316-16.331-16.331v-22.334c0.001-3.533,1.147-6.971,3.266-9.799l21.363-28.425
		c0.442,0.883,0.794,1.766,1.148,2.648C30.775,442.93,36.583,456.61,43.216,469.892z"/>
	<path style="fill:#4482C3;" d="M155.062,365.815L68.286,452.59c-4.833-9.069-8.993-18.481-12.447-28.16
		c-1.501-3.972-3.09-7.857-4.59-11.741c-1.501-3.619-3.09-7.15-4.767-10.505c-2.893-5.578-3.199-12.142-0.84-17.966
		c2.36-5.823,7.15-10.322,13.11-12.313c18.951-5.648,38.512-8.997,58.262-9.975C129.785,362.132,142.514,363.431,155.062,365.815z"
		/>
	<path style="fill:#90BAE1;" d="M196.639,377.203l-97.545,97.545c-8.252-1.772-15.912-5.632-22.246-11.211
		c-3.374-3.211-6.259-6.898-8.563-10.946l86.775-86.775c9.357,1.677,18.979,3.708,28.866,5.826c1.235,0.265,2.472,0.441,3.708,0.706
		C191.05,373.041,194.184,374.73,196.639,377.203z"/>
	<g>
		<path style="fill:#4482C3;" d="M202.289,398.919c-0.177,0.618-0.353,1.324-0.53,2.03c-0.971,3.972-1.854,7.945-2.737,11.829
			c-1.763,10.276-4.942,20.258-9.446,29.661c-5.371,9.804-13.225,18.023-22.775,23.835c-15.413,7.727-32.57,11.316-49.788,10.417
			c-6.028,0.042-12.041-0.61-17.92-1.942l97.545-97.545C202.298,382.894,204.457,391.191,202.289,398.919z"/>
		<path style="fill:#4482C3;" d="M465.616,402.185c-1.677,3.354-3.266,6.885-4.767,10.505c-1.501,3.884-3.09,7.768-4.59,11.741
			c-6.444,16.596-12.006,30.985-21.01,39.107c-11.338,9.133-25.621,13.811-40.165,13.153c-14.947,0.529-29.845-1.994-43.785-7.415
			l98.339-98.339c1.236,0.353,2.472,0.618,3.708,0.971c5.96,1.99,10.75,6.489,13.11,12.313
			C468.815,390.042,468.509,396.607,465.616,402.185z"/>
	</g>
	<path style="fill:#90BAE1;" d="M449.638,370.935l-98.339,98.339c-2.061-0.876-4.066-1.878-6.003-3.001
		c-8.98-5.48-16.469-13.091-21.804-22.157l81.655-81.655C420.178,364.105,435.055,366.939,449.638,370.935z"/>
	<path style="fill:#4482C3;" d="M405.147,362.461l-81.655,81.655c-0.353-0.53-0.618-1.148-0.971-1.677
		c-4.504-9.403-7.682-19.385-9.446-29.661c-0.883-3.884-1.766-7.857-2.737-11.829c-0.177-0.706-0.353-1.412-0.53-2.03
		c-1.678-5.468-1.065-11.382,1.697-16.391c2.762-5.008,7.438-8.682,12.957-10.181c1.236-0.265,2.472-0.441,3.708-0.706
		c21.913-5.519,44.335-8.773,66.913-9.71C398.173,361.931,401.616,362.108,405.147,362.461z"/>
	<path style="fill:#F29C1F;" d="M512.049,464.508v22.334c-0.011,9.015-7.316,16.32-16.331,16.331h-0.088
		c-6.166-0.011-11.8-3.494-14.566-9.004l-12.182-24.276c6.633-13.283,12.441-26.962,17.39-40.96
		c0.353-0.883,0.706-1.766,1.148-2.648l21.363,28.425C510.902,457.536,512.048,460.974,512.049,464.508z"/>
</g>
<g>
</g>
<g>
</g>
<g>
</g>
<g>
</g>
<g>
</g>
<g>
</g>
<g>
</g>
<g>
</g>
<g>
</g>
<g>
</g>
<g>
</g>
<g>
</g>
<g>
</g>
<g>
</g>
<g>
</g>
</svg>
