<svg xmlns="http://www.w3.org/2000/svg" version="1.1" xmlns:xlink="http://www.w3.org/1999/xlink" width="512" height="512" x="0" y="0" viewBox="0 0 512 512" style="enable-background:new 0 0 512 512" xml:space="preserve" class=""><g><path d="m363.333 302-100.508 77.667L141 428.333V502h334V302z" style="" fill="#ffb954" data-original="#ffb954"></path><path d="M374.782 176.741A46.069 46.069 0 0 1 393 213.438V302h82V188.722a76.873 76.873 0 0 0-34.983-64.457l-65.235 52.476zM86.443 340.7l45.22-30.696a36.716 36.716 0 0 1 20.621-6.338c20.277 0 36.716 16.438 36.716 36.716v68.743l-48 19.208V363.5l-50.665 30.309A10.962 10.962 0 0 0 85 403.217V502H37V303.667" style="" fill="#0073e2" data-original="#6a80ff" class="" opacity="1"></path><path d="M37 340.7v-90.979A36.017 36.017 0 0 1 60.911 215.8l128.025-45.687a17.931 17.931 0 0 1 21.451 7.744c4.812 8.118 2.508 18.576-5.269 23.921L117 262.333" style="" fill="#a0e557" data-original="#a0e557" class=""></path><path d="M92.316 340.7H37V255h80v61.017c-13.632 0-24.684 11.051-24.684 24.683z" style="" fill="#a0e557" data-original="#a0e557" class=""></path><path d="m440.017 124.265-66.666-45.033c-17.806-12.028-41.286-11.422-58.448 1.509l-99.209 74.748c-7.298 5.498-9.294 15.605-4.634 23.465l.008.013c4.535 7.649 13.99 10.819 22.219 7.449l97.01-39.725 44.485 30.05" style="" fill="#72d8ff" data-original="#72d8ff"></path><path d="M77 122.174c-20.487 0-37.095 16.608-37.095 37.095v6.393c0 20.487 16.608 37.095 37.095 37.095s37.095-16.608 37.095-37.095v-6.393c0-20.487-16.608-37.095-37.095-37.095zM259.509 20.865c-14.487 14.487-14.487 37.974 0 52.461l4.521 4.521c14.487 14.487 37.974 14.487 52.461 0 14.487-14.487 14.487-37.974 0-52.461l-4.521-4.521c-14.487-14.487-37.974-14.487-52.461 0z" style="" fill="#fcc69d" data-original="#fcc69d" class=""></path><path d="M37 421c2.63 0 5.21-1.07 7.07-2.931C45.93 416.21 47 413.63 47 411s-1.07-5.21-2.93-7.07S39.63 401 37 401s-5.21 1.069-7.07 2.93C28.07 405.79 27 408.37 27 411s1.07 5.21 2.93 7.069A10.072 10.072 0 0 0 37 421z" fill="#000000" opacity="1" data-original="#000000" class=""></path><path d="m445.627 115.988-.013-.01-66.666-45.032c-12.782-8.634-28.008-11.83-42.585-9.68.651-3.141.992-6.369.992-9.651 0-12.579-4.899-24.405-13.794-33.301l-4.521-4.521C310.146 4.898 298.319 0 285.74 0s-24.406 4.898-33.302 13.794c-8.895 8.896-13.793 20.722-13.793 33.302 0 12.579 4.899 24.405 13.793 33.3l4.521 4.522c5.665 5.664 12.521 9.7 20 11.89l-67.283 50.694a27.851 27.851 0 0 0-9.218 12.145c-4.842-.978-9.974-.704-14.882 1.049l-65.179 23.26a46.834 46.834 0 0 0 3.698-18.293v-6.394c0-25.968-21.127-47.095-47.095-47.095s-47.095 21.127-47.095 47.095v6.394c0 18.069 10.234 33.785 25.205 41.68C38.195 214.491 27 231.198 27 249.722V369c0 5.522 4.477 10 10 10s10-4.478 10-10v-18.3h39.443a9.952 9.952 0 0 0 5.616-1.727l45.219-30.695a26.618 26.618 0 0 1 15.005-4.611c14.731 0 26.716 11.984 26.716 26.715v61.974l-28 11.205V363.5a10.001 10.001 0 0 0-15.133-8.582L85.2 385.228c-6.292 3.764-10.2 10.657-10.2 17.989V492H47v-41.98c0-5.522-4.477-10-10-10s-10 4.478-10 10V502c0 5.522 4.477 10 10 10h48c5.523 0 10-4.478 10-10v-98.783c0-.337.18-.654.468-.826L131 381.135V502c0 5.522 4.477 10 10 10h334c5.523 0 10-4.478 10-10V188.722c0-29.459-14.716-56.633-39.373-72.734zM465 188.722V292h-20v-78.867c0-5.522-4.477-10-10-10s-10 4.478-10 10V292h-22v-78.562c0-13.213-4.771-25.998-13.125-36.005l50.453-40.585C455.89 149.477 465 168.391 465 188.722zM266.581 66.254c-5.118-5.117-7.936-11.921-7.936-19.158 0-7.238 2.818-14.042 7.936-19.159C271.698 22.818 278.502 20 285.74 20s14.041 2.818 19.159 7.937l4.521 4.521c10.564 10.563 10.564 27.754 0 38.318-10.565 10.564-27.755 10.564-38.318.001l-4.521-4.523zm-44.869 97.221 99.208-74.748c13.748-10.357 32.569-10.842 46.833-1.208l55.437 37.447-48.926 39.357-38.37-25.919a9.995 9.995 0 0 0-9.387-.968l-97.01 39.726c-3.602 1.472-7.809.071-9.808-3.262l-.028-.047a7.922 7.922 0 0 1 2.051-10.378zm-171.807-4.206c0-14.94 12.155-27.095 27.095-27.095s27.095 12.154 27.095 27.095v6.394c0 14.94-12.155 27.096-27.095 27.096s-27.095-12.155-27.095-27.096v-6.394zM47 249.722c0-10.97 6.941-20.816 17.272-24.503l128.025-45.688a7.947 7.947 0 0 1 9.487 3.425c2.121 3.578 1.097 8.226-2.33 10.581l-88.118 60.555a9.999 9.999 0 0 0-4.336 8.241v52.327L83.371 330.7H47V249.722zm105.284 43.945A46.53 46.53 0 0 0 127 301.109v-33.515l83.782-57.575a27.765 27.765 0 0 0 10.173-12.877c1.854.38 3.748.583 5.655.583 3.516 0 7.068-.664 10.467-2.056l92.058-37.697 39.736 26.841c8.849 6.784 14.13 17.469 14.13 28.625V292h-19.667c-2.213 0-4.363.734-6.115 2.087L257.817 370.9 199 394.395v-54.013c0-25.759-20.957-46.715-46.716-46.715zM465 492H151v-56.894l115.534-46.153a9.99 9.99 0 0 0 2.405-1.373L366.747 312H465v180z" fill="#000000" opacity="1" data-original="#000000" class=""></path><path d="M403.667 372.333H417V411c0 5.522 4.477 10 10 10s10-4.478 10-10v-48.667c0-5.522-4.477-10-10-10h-23.333c-5.523 0-10 4.478-10 10s4.477 10 10 10zM427 440.02c-2.63 0-5.21 1.07-7.07 2.931-1.86 1.859-2.93 4.439-2.93 7.069s1.07 5.21 2.93 7.07c1.86 1.86 4.44 2.93 7.07 2.93s5.21-1.069 7.07-2.93 2.93-4.44 2.93-7.07-1.07-5.21-2.93-7.069a10.072 10.072 0 0 0-7.07-2.931z" fill="#000000" opacity="1" data-original="#000000" class=""></path></g></svg>