<svg xmlns="http://www.w3.org/2000/svg" version="1.1" xmlns:xlink="http://www.w3.org/1999/xlink" width="512" height="512" x="0" y="0" viewBox="0 0 682.667 682.667" style="enable-background:new 0 0 512 512" xml:space="preserve" class=""><g><defs><clipPath id="a" clipPathUnits="userSpaceOnUse"><path d="M0 512h512V0H0Z" fill="#000000" opacity="1" data-original="#000000"></path></clipPath></defs><g clip-path="url(#a)" transform="matrix(1.33333 0 0 -1.33333 0 682.667)"><path d="M0 0h-140.905l13.474 41.222a10.573 10.573 0 0 0 10.048 7.286h93.861c4.572 0 8.626-2.941 10.047-7.286z" style="fill-opacity:1;fill-rule:nonzero;stroke:none" transform="translate(227.442 455.992)" fill="#586d77" data-original="#586d77" class=""></path><path d="M0 0h-140.905l13.474 41.222a10.573 10.573 0 0 0 10.048 7.286h93.861c4.572 0 8.626-2.941 10.047-7.286z" style="stroke-width:15;stroke-linecap:round;stroke-linejoin:round;stroke-miterlimit:10;stroke-dasharray:none;stroke-opacity:1" transform="translate(227.442 455.992)" fill="none" stroke="#000000" stroke-width="15" stroke-linecap="round" stroke-linejoin="round" stroke-miterlimit="10" stroke-dasharray="none" stroke-opacity="" data-original="#000000" class=""></path><path d="M0 0h-140.905l13.474 41.222a10.573 10.573 0 0 0 10.048 7.286h93.861c4.572 0 8.627-2.941 10.047-7.286z" style="fill-opacity:1;fill-rule:nonzero;stroke:none" transform="translate(425.463 455.992)" fill="#586d77" data-original="#586d77" class=""></path><path d="M0 0h-140.905l13.474 41.222a10.573 10.573 0 0 0 10.048 7.286h93.861c4.572 0 8.627-2.941 10.047-7.286z" style="stroke-width:15;stroke-linecap:round;stroke-linejoin:round;stroke-miterlimit:10;stroke-dasharray:none;stroke-opacity:1" transform="translate(425.463 455.992)" fill="none" stroke="#000000" stroke-width="15" stroke-linecap="round" stroke-linejoin="round" stroke-miterlimit="10" stroke-dasharray="none" stroke-opacity="" data-original="#000000" class=""></path><path d="M0 0c0-12.049 9.768-21.816 21.817-21.816h418.957c12.049 0 21.817 9.767 21.817 21.816v418.317c0 12.049-9.768 21.817-21.817 21.817H21.817C9.768 440.134 0 430.366 0 418.317Z" style="fill-opacity:1;fill-rule:nonzero;stroke:none" transform="translate(24.705 29.316)" fill="#b7c5cf" data-original="#b7c5cf" class=""></path><path d="M0 0v79.967c0 12.049-9.768 21.816-21.817 21.816h-418.957c-12.049 0-21.817-9.767-21.817-21.816V0Z" style="fill-opacity:1;fill-rule:nonzero;stroke:none" transform="translate(487.295 367.667)" fill="#a0acba" data-original="#a0acba" class=""></path><path d="M0 0v418.313c0 12.051-9.767 21.819-21.818 21.819h-45.455c12.051 0 21.818-9.768 21.818-21.819V0c0-12.051-9.767-21.818-21.818-21.818h45.455C-9.767-21.818 0-12.051 0 0" style="fill-opacity:1;fill-rule:nonzero;stroke:none" transform="translate(487.292 29.318)" fill="#a0acba" data-original="#a0acba" class=""></path><path d="M0 0v61.163c0 12.051-9.767 21.818-21.818 21.818h-418.948c-12.051 0-21.818-9.767-21.818-21.818V0z" style="fill-opacity:1;fill-rule:nonzero;stroke:none" transform="translate(487.292 386.469)" fill="#d9e7eb" data-original="#d9e7eb" class=""></path><path d="M0 0v61.163c0 12.051-9.767 21.818-21.818 21.818h-45.455c12.051 0 21.818-9.767 21.818-21.818V0Z" style="fill-opacity:1;fill-rule:nonzero;stroke:none" transform="translate(487.292 386.469)" fill="#c5d3de" data-original="#c5d3de"></path><path d="M0 0h-304.315c-12.049 0-21.817-9.768-21.817-21.816v-418.318c0-12.049 9.768-21.816 21.817-21.816h418.957c12.049 0 21.817 9.767 21.817 21.816v418.318C136.459-9.768 126.691 0 114.642 0H33.661" style="stroke-width:15;stroke-linecap:round;stroke-linejoin:round;stroke-miterlimit:10;stroke-dasharray:none;stroke-opacity:1" transform="translate(350.836 469.45)" fill="none" stroke="#000000" stroke-width="15" stroke-linecap="round" stroke-linejoin="round" stroke-miterlimit="10" stroke-dasharray="none" stroke-opacity="" data-original="#000000" class=""></path><path d="M0 0h462.584" style="stroke-width:15;stroke-linecap:round;stroke-linejoin:round;stroke-miterlimit:10;stroke-dasharray:none;stroke-opacity:1" transform="translate(24.708 386.469)" fill="none" stroke="#000000" stroke-width="15" stroke-linecap="round" stroke-linejoin="round" stroke-miterlimit="10" stroke-dasharray="none" stroke-opacity="" data-original="#000000" class=""></path><path d="M0 0v-235c0-5.52-4.479-10-10-10h-293.02c-5.52 0-10 4.48-10 10V0Z" style="fill-opacity:1;fill-rule:nonzero;stroke:none" transform="translate(412.51 320)" fill="#a6e7f0" data-original="#a6e7f0" class=""></path><path d="M412.51 288.3H99.49V320h313.02z" style="fill-opacity:1;fill-rule:nonzero;stroke:none" fill="#0073e2" data-original="#6ad9e7" class="" opacity="1"></path><path d="m0 0-231.39-231.38v51.23L-51.24 0Z" style="fill-opacity:1;fill-rule:nonzero;stroke:none" transform="translate(330.88 320)" fill="#d3f2f6" data-original="#d3f2f6" class=""></path><path d="M0 0v-69.53L-175.479-245H-300.4l245 245z" style="fill-opacity:1;fill-rule:nonzero;stroke:none" transform="translate(412.51 320)" fill="#d3f2f6" data-original="#d3f2f6" class=""></path><path d="M0 0v-31.7h-87.1L-55.4 0Z" style="fill-opacity:1;fill-rule:nonzero;stroke:none" transform="translate(412.51 320)" fill="#a6e7f0" data-original="#a6e7f0" class=""></path><path d="M0 0v-54.85c0-5.522 4.477-10 10-10h293.019c5.523 0 10 4.478 10 10v235H0V33.661" style="stroke-width:15;stroke-linecap:round;stroke-linejoin:round;stroke-miterlimit:10;stroke-dasharray:none;stroke-opacity:1" transform="translate(99.49 139.85)" fill="none" stroke="#000000" stroke-width="15" stroke-linecap="round" stroke-linejoin="round" stroke-miterlimit="10" stroke-dasharray="none" stroke-opacity="" data-original="#000000" class=""></path><path d="M0 0v-76c0-5.52-4.48-10-10-10h-77.03c-5.52 0-10 4.48-10 10V0Z" style="fill-opacity:1;fill-rule:nonzero;stroke:none" transform="translate(323.74 328)" fill="#fd6c56" data-original="#fd6c56" class=""></path><path d="M323.74 288.3h-97.03V328h97.03z" style="fill-opacity:1;fill-rule:nonzero;stroke:none" fill="#fe544d" data-original="#fe544d"></path><path d="M0 0v-76c0-5.522 4.477-10 10-10h77.032c5.523 0 10 4.478 10 10V0Z" style="stroke-width:15;stroke-linecap:round;stroke-linejoin:round;stroke-miterlimit:10;stroke-dasharray:none;stroke-opacity:1" transform="translate(226.708 328)" fill="none" stroke="#000000" stroke-width="15" stroke-linecap="round" stroke-linejoin="round" stroke-miterlimit="10" stroke-dasharray="none" stroke-opacity="" data-original="#000000" class=""></path><path d="M0 0h-341.837c-5.523 0-10 4.478-10 10v15.675c0 5.522 4.477 10 10 10H0c5.523 0 10-4.478 10-10V10C10 4.478 5.523 0 0 0" style="fill-opacity:1;fill-rule:nonzero;stroke:none" transform="translate(426.918 308.298)" fill="#f6f8f9" data-original="#f6f8f9" class=""></path><path d="M0 0v-15.67c0-5.53-4.48-10-10-10h-28.56c5.52 0 10 4.47 10 10V0c0 5.53-4.48 10-10 10H-10C-4.48 10 0 5.53 0 0" style="fill-opacity:1;fill-rule:nonzero;stroke:none" transform="translate(436.92 333.97)" fill="#d9e7eb" data-original="#d9e7eb" class=""></path><path d="M0 0h-76.421c-5.523 0-10-4.478-10-10v-15.675c0-5.522 4.477-10 10-10h341.837c5.522 0 10 4.478 10 10V-10c0 5.522-4.478 10-10 10H33.661" style="stroke-width:15;stroke-linecap:round;stroke-linejoin:round;stroke-miterlimit:10;stroke-dasharray:none;stroke-opacity:1" transform="translate(161.503 343.973)" fill="none" stroke="#000000" stroke-width="15" stroke-linecap="round" stroke-linejoin="round" stroke-miterlimit="10" stroke-dasharray="none" stroke-opacity="" data-original="#000000" class=""></path><path d="M0 0h-77.032c-5.523 0-10 4.478-10 10v156.756c0 5.523 4.477 10 10 10H0c5.523 0 10-4.477 10-10V10C10 4.478 5.523 0 0 0" style="fill-opacity:1;fill-rule:nonzero;stroke:none" transform="translate(349.39 176)" fill="#0073e2" data-original="#fe9082" class="" opacity="1"></path><path d="M0 0v-156.76c0-5.519-4.48-10-10-10h-31.79c5.53 0 10 4.481 10 10V0c0 5.521-4.47 10-10 10H-10C-4.48 10 0 5.521 0 0" style="fill-opacity:1;fill-rule:nonzero;stroke:none" transform="translate(359.39 342.76)" fill="#0073e2" data-original="#fe7b66" class="" opacity="1"></path><path d="M0 0h-77.032c-5.523 0-10 4.478-10 10v156.756c0 5.523 4.477 10 10 10H0c5.523 0 10-4.477 10-10V10C10 4.478 5.523 0 0 0Z" style="stroke-width:15;stroke-linecap:round;stroke-linejoin:round;stroke-miterlimit:10;stroke-dasharray:none;stroke-opacity:1" transform="translate(349.39 176)" fill="none" stroke="#000000" stroke-width="15" stroke-linecap="round" stroke-linejoin="round" stroke-miterlimit="10" stroke-dasharray="none" stroke-opacity="" data-original="#000000" class=""></path><path d="M0 0c0-8.851-7.175-16.024-16.025-16.024-8.85 0-16.025 7.173-16.025 16.024s7.175 16.024 16.025 16.024C-7.175 16.024 0 8.851 0 0" style="fill-opacity:1;fill-rule:nonzero;stroke:none" transform="translate(116.38 430.5)" fill="#0073e2" data-original="#6ad9e7" class="" opacity="1"></path><path d="M0 0c0-8.851-7.175-16.024-16.025-16.024-8.85 0-16.025 7.173-16.025 16.024s7.175 16.024 16.025 16.024C-7.175 16.024 0 8.851 0 0" style="fill-opacity:1;fill-rule:nonzero;stroke:none" transform="translate(189.423 430.5)" fill="#0073e2" data-original="#6ad9e7" class="" opacity="1"></path><path d="M0 0c0-8.851-7.175-16.024-16.025-16.024-8.85 0-16.025 7.173-16.025 16.024s7.175 16.024 16.025 16.024C-7.175 16.024 0 8.851 0 0ZM0 0h10.475" style="stroke-width:15;stroke-linecap:round;stroke-linejoin:round;stroke-miterlimit:10;stroke-dasharray:none;stroke-opacity:1" transform="translate(116.38 430.5)" fill="none" stroke="#000000" stroke-width="15" stroke-linecap="round" stroke-linejoin="round" stroke-miterlimit="10" stroke-dasharray="none" stroke-opacity="" data-original="#000000" class=""></path><path d="M0 0c0-8.851-7.175-16.024-16.025-16.024-8.85 0-16.025 7.173-16.025 16.024s7.175 16.024 16.025 16.024C-7.175 16.024 0 8.851 0 0ZM0 0h10.475" style="stroke-width:15;stroke-linecap:round;stroke-linejoin:round;stroke-miterlimit:10;stroke-dasharray:none;stroke-opacity:1" transform="translate(189.423 430.5)" fill="none" stroke="#000000" stroke-width="15" stroke-linecap="round" stroke-linejoin="round" stroke-miterlimit="10" stroke-dasharray="none" stroke-opacity="" data-original="#000000" class=""></path><path d="M0 0c0-8.851-7.174-16.024-16.025-16.024-8.85 0-16.025 7.173-16.025 16.024s7.175 16.024 16.025 16.024C-7.174 16.024 0 8.851 0 0" style="fill-opacity:1;fill-rule:nonzero;stroke:none" transform="translate(344.152 430.5)" fill="#0073e2" data-original="#6ad9e7" class="" opacity="1"></path><path d="M0 0c0-8.851-7.174-16.024-16.025-16.024-8.85 0-16.025 7.173-16.025 16.024s7.175 16.024 16.025 16.024C-7.174 16.024 0 8.851 0 0ZM0 0h10.475" style="stroke-width:15;stroke-linecap:round;stroke-linejoin:round;stroke-miterlimit:10;stroke-dasharray:none;stroke-opacity:1" transform="translate(344.152 430.5)" fill="none" stroke="#000000" stroke-width="15" stroke-linecap="round" stroke-linejoin="round" stroke-miterlimit="10" stroke-dasharray="none" stroke-opacity="" data-original="#000000" class=""></path><path d="M0 0c0-8.851-7.175-16.024-16.025-16.024-8.85 0-16.025 7.173-16.025 16.024s7.175 16.024 16.025 16.024C-7.175 16.024 0 8.851 0 0" style="fill-opacity:1;fill-rule:nonzero;stroke:none" transform="translate(417.194 430.5)" fill="#0073e2" data-original="#6ad9e7" class="" opacity="1"></path><path d="M0 0c0-8.851-7.175-16.024-16.025-16.024-8.85 0-16.025 7.173-16.025 16.024s7.175 16.024 16.025 16.024C-7.175 16.024 0 8.851 0 0ZM0 0h10.475" style="stroke-width:15;stroke-linecap:round;stroke-linejoin:round;stroke-miterlimit:10;stroke-dasharray:none;stroke-opacity:1" transform="translate(417.194 430.5)" fill="none" stroke="#000000" stroke-width="15" stroke-linecap="round" stroke-linejoin="round" stroke-miterlimit="10" stroke-dasharray="none" stroke-opacity="" data-original="#000000" class=""></path><path d="M0 0h.104" style="stroke-width:15;stroke-linecap:round;stroke-linejoin:round;stroke-miterlimit:10;stroke-dasharray:none;stroke-opacity:1" transform="translate(242.198 441.25)" fill="none" stroke="#000000" stroke-width="15" stroke-linecap="round" stroke-linejoin="round" stroke-miterlimit="10" stroke-dasharray="none" stroke-opacity="" data-original="#000000" class=""></path><path d="M0 0h.104" style="stroke-width:15;stroke-linecap:round;stroke-linejoin:round;stroke-miterlimit:10;stroke-dasharray:none;stroke-opacity:1" transform="translate(242.198 416.25)" fill="none" stroke="#000000" stroke-width="15" stroke-linecap="round" stroke-linejoin="round" stroke-miterlimit="10" stroke-dasharray="none" stroke-opacity="" data-original="#000000" class=""></path><path d="M0 0h.104" style="stroke-width:15;stroke-linecap:round;stroke-linejoin:round;stroke-miterlimit:10;stroke-dasharray:none;stroke-opacity:1" transform="translate(269.698 441.25)" fill="none" stroke="#000000" stroke-width="15" stroke-linecap="round" stroke-linejoin="round" stroke-miterlimit="10" stroke-dasharray="none" stroke-opacity="" data-original="#000000" class=""></path><path d="M0 0h.104" style="stroke-width:15;stroke-linecap:round;stroke-linejoin:round;stroke-miterlimit:10;stroke-dasharray:none;stroke-opacity:1" transform="translate(269.698 416.25)" fill="none" stroke="#000000" stroke-width="15" stroke-linecap="round" stroke-linejoin="round" stroke-miterlimit="10" stroke-dasharray="none" stroke-opacity="" data-original="#000000" class=""></path></g></g></svg>