<?xml version="1.0" encoding="UTF-8"?>
<!DOCTYPE svg PUBLIC "-//W3C//DTD SVG 1.1//EN" "http://www.w3.org/Graphics/SVG/1.1/DTD/svg11.dtd">
<svg xmlns="http://www.w3.org/2000/svg" version="1.1" width="412px" height="654px" style="shape-rendering:geometricPrecision; text-rendering:geometricPrecision; image-rendering:optimizeQuality; fill-rule:evenodd; clip-rule:evenodd" xmlns:xlink="http://www.w3.org/1999/xlink">
<g><path style="opacity:1" fill="#fefefe" d="M -0.5,-0.5 C 136.833,-0.5 274.167,-0.5 411.5,-0.5C 411.5,217.5 411.5,435.5 411.5,653.5C 274.167,653.5 136.833,653.5 -0.5,653.5C -0.5,435.5 -0.5,217.5 -0.5,-0.5 Z"/></g>
<g><path style="opacity:1" fill="#227ce5" d="M 165.5,66.5 C 157.044,61.2108 150.044,54.3775 144.5,46C 140.279,43.2161 135.612,41.5495 130.5,41C 128.993,40.1627 128.493,38.9961 129,37.5C 134.082,36.363 139.249,36.1963 144.5,37C 145.618,40.3553 147.118,43.522 149,46.5C 155.113,52.7683 160.613,59.4349 165.5,66.5 Z"/></g>
<g><path style="opacity:1" fill="#0b76e4" d="M 103.5,37.5 C 110.833,37.5 118.167,37.5 125.5,37.5C 125.5,39.5 125.5,41.5 125.5,43.5C 129.935,45.4014 134.602,46.568 139.5,47C 144.024,50.2714 146.857,54.4381 148,59.5C 146.732,61.7173 145.232,63.7173 143.5,65.5C 139.91,63.8678 136.243,62.5345 132.5,61.5C 132.014,64.7553 133.014,67.422 135.5,69.5C 135.167,69.8333 134.833,70.1667 134.5,70.5C 129.891,67.89 125.558,64.89 121.5,61.5C 120.718,63.3293 121.384,64.8293 123.5,66C 117.919,64.7058 112.919,62.0392 108.5,58C 105.691,56.2589 102.691,55.0922 99.5,54.5C 99.8221,50.6496 98.4887,47.483 95.5,45C 98.6657,42.9999 101.332,40.4999 103.5,37.5 Z"/></g>
<g><path style="opacity:1" fill="#1979e5" d="M 87.5,46.5 C 88.9778,46.238 90.3112,46.5713 91.5,47.5C 89.9629,51.0633 90.2963,54.3966 92.5,57.5C 96.0066,60.1625 99.6732,62.6625 103.5,65C 100.118,64.8055 96.7847,64.9722 93.5,65.5C 89.3008,63.3121 86.6341,59.8121 85.5,55C 86.2331,52.1652 86.8997,49.3319 87.5,46.5 Z"/></g>
<g><path style="opacity:1" fill="#1979e5" d="M 149.5,58.5 C 155.541,65.2092 162.874,69.8759 171.5,72.5C 173.286,75.6412 172.786,78.3079 170,80.5C 167.26,79.7178 164.426,79.2178 161.5,79C 156.48,74.6432 151.48,70.3099 146.5,66C 147.651,63.5351 148.651,61.0351 149.5,58.5 Z"/></g>
<g><path style="opacity:1" fill="#73afef" d="M 165.5,66.5 C 166.756,66.4614 167.756,66.9614 168.5,68C 167.002,68.5847 166.002,68.0847 165.5,66.5 Z"/></g>
<g><path style="opacity:1" fill="#2881e6" d="M 80.5,67.5 C 81.9441,70.7133 83.7774,71.0466 86,68.5C 86.4935,70.1341 86.6602,71.8008 86.5,73.5C 81.5,74.5 79.5,72.5 80.5,67.5 Z"/></g>
<g><path style="opacity:1" fill="#0e76e4" d="M 192.5,91.5 C 193.398,92.1577 194.398,92.8243 195.5,93.5C 194.52,94.9814 193.353,96.3147 192,97.5C 191.667,99.1667 191.333,100.833 191,102.5C 188.815,100.46 186.315,99.1264 183.5,98.5C 183.61,101.059 182.944,103.392 181.5,105.5C 176.887,106.279 172.22,106.779 167.5,107C 166.74,108.441 166.074,109.941 165.5,111.5C 158.189,112.331 150.856,112.831 143.5,113C 140.288,115.019 138.622,117.853 138.5,121.5C 137.209,121.263 136.209,121.596 135.5,122.5C 133.5,123.5 131.5,124.5 129.5,125.5C 128.167,125.5 126.833,125.5 125.5,125.5C 125.5,121.833 125.5,118.167 125.5,114.5C 125.586,113.504 125.252,112.671 124.5,112C 117.545,109.999 115.212,105.499 117.5,98.5C 120.656,96.8368 123.989,95.6701 127.5,95C 130.069,91.927 133.069,89.427 136.5,87.5C 135.453,84.5698 133.787,82.0698 131.5,80C 126.565,77.3943 121.898,74.3943 117.5,71C 122.982,71.5664 127.982,73.5664 132.5,77C 135.774,78.2023 139.107,79.2023 142.5,80C 144.019,81.3513 145.352,82.8513 146.5,84.5C 144.536,87.9208 145.536,90.2542 149.5,91.5C 156.813,89.1807 164.147,86.8474 171.5,84.5C 178.606,86.5548 185.606,88.8882 192.5,91.5 Z"/></g>
<g><path style="opacity:1" fill="#287fe6" d="M 195.5,89.5 C 189.147,84.8238 182.147,81.4905 174.5,79.5C 173.737,76.8589 173.57,74.1922 174,71.5C 181.357,77.3645 188.524,83.3645 195.5,89.5 Z"/></g>
<g><path style="opacity:1" fill="#99c7f4" d="M 59.5,77.5 C 58.5386,79.2646 58.2053,81.2646 58.5,83.5C 57.2031,81.3066 57.2031,78.9732 58.5,76.5C 59.1067,76.6236 59.44,76.9569 59.5,77.5 Z"/></g>
<g><path style="opacity:1" fill="#1679e5" d="M 59.5,77.5 C 62.1436,79.3973 64.8103,81.3973 67.5,83.5C 66.6519,84.9911 65.3186,85.6578 63.5,85.5C 61.4434,85.5643 59.7767,84.8976 58.5,83.5C 58.2053,81.2646 58.5386,79.2646 59.5,77.5 Z"/></g>
<g><path style="opacity:1" fill="#0875e4" d="M 198.5,91.5 C 207.109,97.6081 214.943,104.608 222,112.5C 222.667,113.167 222.667,113.833 222,114.5C 220.152,111.959 217.652,110.959 214.5,111.5C 214.351,112.552 214.517,113.552 215,114.5C 218.667,117.5 222.333,120.5 226,123.5C 226.353,122.328 226.187,121.162 225.5,120C 225.974,118.392 226.641,118.226 227.5,119.5C 229.796,124.419 231.796,129.419 233.5,134.5C 226.851,135.728 226.851,137.228 233.5,139C 234.337,140.011 234.67,141.178 234.5,142.5C 235.822,142.33 236.989,142.663 238,143.5C 239.72,148.446 242.554,152.613 246.5,156C 244.432,155.983 242.766,154.983 241.5,153C 233.201,150.872 232.867,152.705 240.5,158.5C 240.376,159.107 240.043,159.44 239.5,159.5C 233.43,161.638 227.263,163.638 221,165.5C 220.54,162.696 221.04,160.029 222.5,157.5C 220.238,153.697 216.905,151.364 212.5,150.5C 210.626,150.39 209.126,151.056 208,152.5C 209.427,147.75 207.594,145.417 202.5,145.5C 203.165,140.353 200.832,138.02 195.5,138.5C 191.721,140.224 188.055,142.224 184.5,144.5C 182.056,143.233 179.723,141.733 177.5,140C 173.833,139.333 170.167,139.333 166.5,140C 165.978,140.561 165.645,141.228 165.5,142C 168.48,145.275 169.647,149.108 169,153.5C 165.774,157.392 161.941,160.558 157.5,163C 149.812,163.831 142.145,163.665 134.5,162.5C 134.247,159.132 134.747,155.799 136,152.5C 137.145,151.364 138.312,150.364 139.5,149.5C 140.833,145.167 140.833,140.833 139.5,136.5C 136.885,132.991 135.885,128.991 136.5,124.5C 137.791,124.737 138.791,124.404 139.5,123.5C 140.451,122.081 140.784,120.415 140.5,118.5C 141.29,117.206 142.29,116.039 143.5,115C 150.839,113.725 158.172,113.392 165.5,114C 166.966,112.448 167.966,110.614 168.5,108.5C 173.577,107.895 178.577,107.062 183.5,106C 184.11,104.053 184.943,102.219 186,100.5C 188.185,102.54 190.685,103.874 193.5,104.5C 193.337,102.143 193.503,99.8098 194,97.5C 196.227,96.0453 197.727,94.0453 198.5,91.5 Z"/></g>
<g><path style="opacity:1" fill="#d4e5fa" d="M 195.5,89.5 C 197.027,89.427 198.027,90.0937 198.5,91.5C 197.727,94.0453 196.227,96.0453 194,97.5C 193.503,99.8098 193.337,102.143 193.5,104.5C 190.685,103.874 188.185,102.54 186,100.5C 184.943,102.219 184.11,104.053 183.5,106C 178.577,107.062 173.577,107.895 168.5,108.5C 167.966,110.614 166.966,112.448 165.5,114C 158.172,113.392 150.839,113.725 143.5,115C 142.29,116.039 141.29,117.206 140.5,118.5C 139.833,119.5 139.167,120.5 138.5,121.5C 138.622,117.853 140.288,115.019 143.5,113C 150.856,112.831 158.189,112.331 165.5,111.5C 166.074,109.941 166.74,108.441 167.5,107C 172.22,106.779 176.887,106.279 181.5,105.5C 182.944,103.392 183.61,101.059 183.5,98.5C 186.315,99.1264 188.815,100.46 191,102.5C 191.333,100.833 191.667,99.1667 192,97.5C 193.353,96.3147 194.52,94.9814 195.5,93.5C 194.398,92.8243 193.398,92.1577 192.5,91.5C 193.873,91.6567 195.207,91.49 196.5,91C 195.944,90.6174 195.611,90.1174 195.5,89.5 Z"/></g>
<g><path style="opacity:1" fill="#8bbef2" d="M 125.5,114.5 C 125.5,118.167 125.5,121.833 125.5,125.5C 126.833,125.5 128.167,125.5 129.5,125.5C 128.081,126.451 126.415,126.784 124.5,126.5C 124.183,122.298 124.517,118.298 125.5,114.5 Z"/></g>
<g><path style="opacity:1" fill="#7ab2f0" d="M 140.5,118.5 C 140.784,120.415 140.451,122.081 139.5,123.5C 138.432,122.566 137.099,122.232 135.5,122.5C 136.209,121.596 137.209,121.263 138.5,121.5C 139.167,120.5 139.833,119.5 140.5,118.5 Z"/></g>
<g><path style="opacity:1" fill="#0975e4" d="M 138.5,138.5 C 138.5,139.5 138.5,140.5 138.5,141.5C 138.5,144.167 138.5,146.833 138.5,149.5C 137.178,149.33 136.011,149.663 135,150.5C 134.529,152.246 133.862,153.913 133,155.5C 133.818,158.831 133.651,162.164 132.5,165.5C 141.181,165.248 149.848,165.082 158.5,165C 162.041,167.744 164.041,171.411 164.5,176C 164.325,177.658 163.658,178.991 162.5,180C 156.046,182.101 149.379,183.101 142.5,183C 139.574,184.507 137.574,186.841 136.5,190C 135.207,190.49 133.873,190.657 132.5,190.5C 133.539,195.763 136.205,200.263 140.5,204C 131.976,207.823 123.309,208.323 114.5,205.5C 114.672,212.761 114.338,220.095 113.5,227.5C 110.423,225.295 107.09,223.628 103.5,222.5C 101.139,222.326 98.8056,221.993 96.5,221.5C 96.5016,217.489 97.6683,213.822 100,210.5C 100.167,207.667 100.333,204.833 100.5,202C 98.2547,190.646 96.9213,179.146 96.5,167.5C 102.543,162.951 108.71,158.618 115,154.5C 117.411,145.363 120.244,136.363 123.5,127.5C 127.516,128.1 131.016,127.1 134,124.5C 134.692,129.505 136.192,134.172 138.5,138.5 Z"/></g>
<g><path style="opacity:1" fill="#a1c9f4" d="M 139.5,136.5 C 140.833,140.833 140.833,145.167 139.5,149.5C 139.806,146.615 139.473,143.948 138.5,141.5C 138.5,140.5 138.5,139.5 138.5,138.5C 139.338,138.158 139.672,137.492 139.5,136.5 Z"/></g>
<g><path style="opacity:1" fill="#2a7fe6" d="M 65.5,142.5 C 75.3269,142.619 83.9936,145.786 91.5,152C 89.7749,151.591 88.1082,151.758 86.5,152.5C 88.69,154.856 90.69,157.356 92.5,160C 91.8333,160.667 91.1667,160.667 90.5,160C 83.8277,152.319 75.4944,147.653 65.5,146C 64.3157,144.855 64.3157,143.688 65.5,142.5 Z"/></g>
<g><path style="opacity:1" fill="#0a75e4" d="M 240.5,160.5 C 241.267,161.172 241.934,162.005 242.5,163C 239.833,164.667 239.833,166.333 242.5,168C 243.833,168.667 245.167,168.667 246.5,168C 247.956,166.255 249.289,164.422 250.5,162.5C 254.409,166.647 257.576,171.314 260,176.5C 262.101,177.924 264.267,179.258 266.5,180.5C 267.435,185.735 270.269,189.402 275,191.5C 276.487,195.116 277.82,198.783 279,202.5C 279.414,202.043 279.914,201.709 280.5,201.5C 281.753,204.257 283.587,206.591 286,208.5C 286.269,211.28 285.102,213.446 282.5,215C 287.104,216.423 288.938,219.59 288,224.5C 287.883,221.371 286.383,220.205 283.5,221C 282.823,223.982 282.823,226.815 283.5,229.5C 279.796,225.286 275.963,224.953 272,228.5C 271.517,229.448 271.351,230.448 271.5,231.5C 273.936,231.683 276.103,231.016 278,229.5C 279.715,231.759 281.548,233.926 283.5,236C 287.5,236.667 291.5,236.667 295.5,236C 295.906,230.91 298.572,229.244 303.5,231C 304.211,232.255 305.044,233.421 306,234.5C 306.281,239.393 307.448,244.06 309.5,248.5C 309.333,249.167 309.167,249.833 309,250.5C 308.121,248.021 306.621,246.021 304.5,244.5C 303.524,247.497 303.69,250.497 305,253.5C 306.785,254.24 308.618,254.907 310.5,255.5C 311.598,258.753 312.264,262.086 312.5,265.5C 306.285,265.337 299.952,265.837 293.5,267C 289.996,271.562 286.996,276.395 284.5,281.5C 284.251,278.207 283.584,274.707 282.5,271C 272.976,267.053 262.976,264.386 252.5,263C 251.809,261.933 251.309,260.766 251,259.5C 247.887,258.29 245.387,256.29 243.5,253.5C 244.766,249.535 245.933,245.535 247,241.5C 249.338,239.843 250.838,237.676 251.5,235C 246.914,227.162 242.58,219.162 238.5,211C 239.601,208.965 240.268,206.798 240.5,204.5C 239.057,200.781 238.057,196.948 237.5,193C 237.718,188.903 239.051,185.237 241.5,182C 237.659,177.073 232.992,173.073 227.5,170C 224.234,169.666 221.234,169.499 218.5,169.5C 219.779,167.854 221.445,166.687 223.5,166C 229.616,165.218 235.282,163.385 240.5,160.5 Z"/></g>
<g><path style="opacity:1" fill="#0875e4" d="M 99.5,223.5 C 103.232,224.076 106.898,225.243 110.5,227C 113.072,230.819 112.905,234.652 110,238.5C 106.221,241.931 103.054,245.764 100.5,250C 102.684,257.409 105.017,264.742 107.5,272C 109.235,272.651 110.902,272.485 112.5,271.5C 115.382,272.772 118.215,274.105 121,275.5C 121.791,280.874 122.791,286.207 124,291.5C 124.908,293.439 126.408,294.439 128.5,294.5C 129.012,299.585 128.345,304.419 126.5,309C 127.89,312.019 127.057,312.852 124,311.5C 122.925,314.196 121.092,316.196 118.5,317.5C 117.902,318.795 117.402,320.128 117,321.5C 109.186,326.45 106.02,333.45 107.5,342.5C 105.322,343.979 102.988,345.312 100.5,346.5C 98.913,348.446 99.2464,349.946 101.5,351C 99.6711,351.273 98.1711,352.107 97,353.5C 92.8334,360.258 91.5001,367.591 93,375.5C 94.6637,384.484 96.1637,393.484 97.5,402.5C 97.8685,405.533 97.2018,408.2 95.5,410.5C 91.8055,409.349 87.8055,409.349 83.5,410.5C 81.2439,395.454 78.9106,380.287 76.5,365C 78.2491,362.262 79.2491,359.262 79.5,356C 77.2188,338.761 73.2188,321.928 67.5,305.5C 67.6667,304.833 67.8333,304.167 68,303.5C 72.4776,307.935 77.4776,308.602 83,305.5C 83.6667,304.167 83.6667,302.833 83,301.5C 81.8706,298.735 80.3706,296.235 78.5,294C 80.1175,290.767 81.4509,287.434 82.5,284C 81.0304,279.663 80.0304,275.163 79.5,270.5C 80.919,268.664 82.0857,266.664 83,264.5C 84.2108,251.852 86.2108,239.519 89,227.5C 90.7206,225.289 92.7206,223.289 95,221.5C 96.3297,222.582 97.8297,223.249 99.5,223.5 Z"/></g>
<g><path style="opacity:1" fill="#1c7ae5" d="M 69.5,265.5 C 74.6539,268.002 74.8206,271.002 70,274.5C 69.5738,279.58 68.7405,284.58 67.5,289.5C 67.383,292.597 68.383,295.264 70.5,297.5C 69.7515,299.332 68.7515,300.999 67.5,302.5C 65.8893,299.001 64.8893,295.334 64.5,291.5C 65.6844,285.468 65.6844,279.468 64.5,273.5C 67.0119,271.33 68.6785,268.663 69.5,265.5 Z"/></g>
<g><path style="opacity:1" fill="#0b75e4" d="M 313.5,268.5 C 315.232,273.368 316.566,278.368 317.5,283.5C 317.564,285.389 317.064,287.056 316,288.5C 315.856,283.898 314.356,279.898 311.5,276.5C 309.623,282.308 310.956,287.141 315.5,291C 317.479,291.684 319.146,291.184 320.5,289.5C 322.545,296.698 326.378,302.698 332,307.5C 332.414,307.043 332.914,306.709 333.5,306.5C 333.725,310.631 335.392,313.965 338.5,316.5C 335.206,324.256 337.706,329.256 346,331.5C 348.95,336.118 352.284,340.452 356,344.5C 356.483,345.448 356.649,346.448 356.5,347.5C 352.869,346.392 349.869,344.226 347.5,341C 341.812,338.172 339.145,340.005 339.5,346.5C 342.553,346.319 345.553,346.152 348.5,346C 349.871,349.38 352.038,352.213 355,354.5C 355.14,357.043 355.806,359.377 357,361.5C 357.915,360.672 358.581,359.672 359,358.5C 364.408,363.822 365.908,370.155 363.5,377.5C 363.887,379.274 364.553,380.941 365.5,382.5C 359.495,383.587 354.661,386.587 351,391.5C 349.921,385.888 348.755,380.222 347.5,374.5C 345.057,376.055 342.39,376.722 339.5,376.5C 332.505,377.338 326.172,375.838 320.5,372C 318.406,370.745 317.406,368.912 317.5,366.5C 318.21,363.201 318.543,359.867 318.5,356.5C 315.432,356.453 312.432,355.953 309.5,355C 306.148,351.251 302.814,347.584 299.5,344C 295.911,343.793 292.411,343.293 289,342.5C 286.789,333.708 287.123,325.041 290,316.5C 291.574,315.152 293.407,314.486 295.5,314.5C 298.14,315.095 300.807,315.428 303.5,315.5C 301.84,308.842 300.173,302.175 298.5,295.5C 299.388,286.189 299.721,276.856 299.5,267.5C 304.167,267.833 308.833,268.167 313.5,268.5 Z"/></g>
<g><path style="opacity:1" fill="#0574e4" d="M 341.5,377.5 C 343.144,377.714 344.644,377.38 346,376.5C 347.626,382.202 349.126,387.868 350.5,393.5C 352.984,391.517 355.317,389.35 357.5,387C 360.971,385.964 364.471,385.131 368,384.5C 368.771,387.19 369.604,389.856 370.5,392.5C 371.04,389.214 372.206,386.214 374,383.5C 376.25,389.016 378.25,394.683 380,400.5C 380.333,414.5 380.667,428.5 381,442.5C 382.747,446.798 382.747,451.132 381,455.5C 377.841,464.975 375.508,474.641 374,484.5C 372.046,489.705 369.713,494.705 367,499.5C 366.667,502.167 366.333,504.833 366,507.5C 363.418,512.333 360.585,517 357.5,521.5C 356.675,522.386 355.675,522.719 354.5,522.5C 352.467,519.987 349.801,518.487 346.5,518C 344.552,516.561 343.219,514.728 342.5,512.5C 343.755,495.5 345.088,478.5 346.5,461.5C 346.353,458.89 345.519,456.556 344,454.5C 343.667,450.5 343.333,446.5 343,442.5C 339.116,440.146 334.949,438.312 330.5,437C 328.603,434.061 327.77,430.895 328,427.5C 329.248,424.421 331.081,421.754 333.5,419.5C 331.824,414.139 328.991,409.473 325,405.5C 324.659,399.589 323.826,393.756 322.5,388C 323.818,385.622 322.984,384.455 320,384.5C 317.851,385.299 315.684,386.133 313.5,387C 311.941,389.364 309.775,390.864 307,391.5C 308.885,398.115 306.385,401.448 299.5,401.5C 299.666,405.514 299.499,409.514 299,413.5C 298.311,414.357 297.478,415.023 296.5,415.5C 294.209,411.756 292.209,407.756 290.5,403.5C 288.821,402.218 286.987,401.218 285,400.5C 281.05,392.369 280.55,384.036 283.5,375.5C 283.468,373.241 283.134,371.075 282.5,369C 280.444,368.689 278.444,368.189 276.5,367.5C 271.995,369.249 267.995,371.749 264.5,375C 262.559,375.743 260.726,375.576 259,374.5C 257.568,369.287 255.401,364.454 252.5,360C 253.628,355.513 253.628,351.013 252.5,346.5C 256.514,346.334 260.514,346.501 264.5,347C 267.751,348.577 270.751,350.577 273.5,353C 277.696,354.77 282.029,355.937 286.5,356.5C 288.139,352.747 288.806,348.747 288.5,344.5C 292.472,345.108 296.472,345.608 300.5,346C 303.556,352.561 308.556,356.727 315.5,358.5C 316.122,362.126 316.289,365.793 316,369.5C 322.848,377.631 331.348,380.298 341.5,377.5 Z"/></g>
<g><path style="opacity:1" fill="#d9e9fb" d="M 239.5,159.5 C 239.5,160.167 239.833,160.5 240.5,160.5C 235.282,163.385 229.616,165.218 223.5,166C 221.445,166.687 219.779,167.854 218.5,169.5C 221.234,169.499 224.234,169.666 227.5,170C 232.992,173.073 237.659,177.073 241.5,182C 239.051,185.237 237.718,188.903 237.5,193C 238.057,196.948 239.057,200.781 240.5,204.5C 240.268,206.798 239.601,208.965 238.5,211C 242.58,219.162 246.914,227.162 251.5,235C 250.838,237.676 249.338,239.843 247,241.5C 245.933,245.535 244.766,249.535 243.5,253.5C 245.387,256.29 247.887,258.29 251,259.5C 251.309,260.766 251.809,261.933 252.5,263C 262.976,264.386 272.976,267.053 282.5,271C 283.584,274.707 284.251,278.207 284.5,281.5C 286.996,276.395 289.996,271.562 293.5,267C 299.952,265.837 306.285,265.337 312.5,265.5C 313.404,266.209 313.737,267.209 313.5,268.5C 308.833,268.167 304.167,267.833 299.5,267.5C 299.721,276.856 299.388,286.189 298.5,295.5C 300.173,302.175 301.84,308.842 303.5,315.5C 300.807,315.428 298.14,315.095 295.5,314.5C 293.407,314.486 291.574,315.152 290,316.5C 287.123,325.041 286.789,333.708 289,342.5C 292.411,343.293 295.911,343.793 299.5,344C 302.814,347.584 306.148,351.251 309.5,355C 312.432,355.953 315.432,356.453 318.5,356.5C 318.543,359.867 318.21,363.201 317.5,366.5C 317.406,368.912 318.406,370.745 320.5,372C 326.172,375.838 332.505,377.338 339.5,376.5C 339.842,377.338 340.508,377.672 341.5,377.5C 331.348,380.298 322.848,377.631 316,369.5C 316.289,365.793 316.122,362.126 315.5,358.5C 308.556,356.727 303.556,352.561 300.5,346C 296.472,345.608 292.472,345.108 288.5,344.5C 288.806,348.747 288.139,352.747 286.5,356.5C 282.029,355.937 277.696,354.77 273.5,353C 270.751,350.577 267.751,348.577 264.5,347C 260.514,346.501 256.514,346.334 252.5,346.5C 253.628,351.013 253.628,355.513 252.5,360C 255.401,364.454 257.568,369.287 259,374.5C 260.726,375.576 262.559,375.743 264.5,375C 267.995,371.749 271.995,369.249 276.5,367.5C 278.444,368.189 280.444,368.689 282.5,369C 283.134,371.075 283.468,373.241 283.5,375.5C 280.55,384.036 281.05,392.369 285,400.5C 286.987,401.218 288.821,402.218 290.5,403.5C 292.209,407.756 294.209,411.756 296.5,415.5C 297.478,415.023 298.311,414.357 299,413.5C 299.499,409.514 299.666,405.514 299.5,401.5C 306.385,401.448 308.885,398.115 307,391.5C 309.775,390.864 311.941,389.364 313.5,387C 315.684,386.133 317.851,385.299 320,384.5C 322.984,384.455 323.818,385.622 322.5,388C 323.826,393.756 324.659,399.589 325,405.5C 328.991,409.473 331.824,414.139 333.5,419.5C 331.081,421.754 329.248,424.421 328,427.5C 327.77,430.895 328.603,434.061 330.5,437C 334.949,438.312 339.116,440.146 343,442.5C 343.333,446.5 343.667,450.5 344,454.5C 345.519,456.556 346.353,458.89 346.5,461.5C 345.088,478.5 343.755,495.5 342.5,512.5C 343.219,514.728 344.552,516.561 346.5,518C 349.801,518.487 352.467,519.987 354.5,522.5C 353.833,522.5 353.5,522.833 353.5,523.5C 351.089,521.781 348.423,520.448 345.5,519.5C 344.5,517.833 343.167,516.5 341.5,515.5C 335.949,518.365 330.615,521.698 325.5,525.5C 324.852,530.234 323.519,534.734 321.5,539C 309.952,539.848 299.118,543.348 289,549.5C 287.933,548.809 286.766,548.309 285.5,548C 283.833,545.667 282.167,543.333 280.5,541C 279.05,540.883 277.55,541.05 276,541.5C 270.703,536.404 265.203,536.237 259.5,541C 258.207,541.49 256.873,541.657 255.5,541.5C 255.851,543.869 256.018,546.203 256,548.5C 251.55,550.368 247.383,552.702 243.5,555.5C 244.637,557.607 245.637,559.773 246.5,562C 246.22,563.395 245.553,564.562 244.5,565.5C 241.627,564.225 238.627,563.392 235.5,563C 233.078,559.306 229.745,558.473 225.5,560.5C 218.828,557.415 211.828,555.749 204.5,555.5C 204.662,557.527 204.495,559.527 204,561.5C 200.295,563.199 198.128,566.033 197.5,570C 199.302,571.827 201.468,572.994 204,573.5C 204.18,575.488 204.014,577.488 203.5,579.5C 205.977,579.051 207.977,579.717 209.5,581.5C 207.567,583.572 207.567,585.905 209.5,588.5C 208.055,590.063 206.389,591.396 204.5,592.5C 205.85,593.95 207.516,594.617 209.5,594.5C 208.887,598.512 210.554,600.512 214.5,600.5C 214.167,601.5 213.5,602.167 212.5,602.5C 210.909,601.781 209.409,600.781 208,599.5C 207.427,596.496 205.927,594.163 203.5,592.5C 203.719,590.085 205.052,589.085 207.5,589.5C 206.55,586.932 206.55,584.432 207.5,582C 202.832,581.856 201.165,579.689 202.5,575.5C 194.866,571.096 194.699,566.096 202,560.5C 202.532,557.736 203.366,555.07 204.5,552.5C 203.902,551.205 203.402,549.872 203,548.5C 200.527,547.88 198.027,547.214 195.5,546.5C 196.833,545.167 196.833,543.833 195.5,542.5C 192.5,541.167 189.5,541.167 186.5,542.5C 182.89,544.395 179.224,546.228 175.5,548C 179.43,550.288 180.43,553.455 178.5,557.5C 176.436,557.313 174.436,556.813 172.5,556C 170.493,552.819 167.826,551.652 164.5,552.5C 168.33,554.839 170.663,558.173 171.5,562.5C 171.294,566.204 169.294,568.037 165.5,568C 166.022,568.561 166.355,569.228 166.5,570C 165.139,572.73 164.639,575.563 165,578.5C 167.593,580.549 170.093,582.715 172.5,585C 170.145,587.355 167.812,589.688 165.5,592C 169.63,594.745 169.464,597.245 165,599.5C 164.51,600.793 164.343,602.127 164.5,603.5C 163.209,603.737 162.209,603.404 161.5,602.5C 162.409,599.703 164.076,597.37 166.5,595.5C 164.054,594.573 163.221,592.906 164,590.5C 166.46,589.042 168.627,587.209 170.5,585C 167.333,583.167 164.833,580.667 163,577.5C 162.997,574.968 163.497,572.468 164.5,570C 164.561,568.289 163.894,566.956 162.5,566C 164.81,565.503 167.143,565.337 169.5,565.5C 169.662,563.473 169.495,561.473 169,559.5C 166.798,556.337 164.298,553.503 161.5,551C 166.464,548.791 170.464,550.124 173.5,555C 174.793,555.49 176.127,555.657 177.5,555.5C 176.8,552.937 175.8,550.437 174.5,548C 175.154,546.013 176.487,544.68 178.5,544C 173.166,542.754 168.166,540.754 163.5,538C 159.544,537.963 155.877,539.13 152.5,541.5C 151.327,543.979 151.327,546.479 152.5,549C 152.387,550.28 151.72,551.113 150.5,551.5C 147.978,549.144 145.312,546.977 142.5,545C 140.833,544.333 139.167,544.333 137.5,545C 136.226,546.221 134.726,547.054 133,547.5C 125.591,543.88 118.091,540.38 110.5,537C 108.934,536.235 107.601,536.402 106.5,537.5C 105.375,536.652 105.375,535.652 106.5,534.5C 107.873,534.343 109.207,534.51 110.5,535C 118.091,538.38 125.591,541.88 133,545.5C 139.82,541.95 145.487,543.284 150,549.5C 149.747,546.867 149.747,544.2 150,541.5C 153.75,539.041 157.583,536.708 161.5,534.5C 158.249,528.996 154.749,523.662 151,518.5C 151,516.5 151,514.5 151,512.5C 148.961,510.126 146.628,508.126 144,506.5C 143.594,503.085 141.928,500.418 139,498.5C 136.107,492.484 134.274,486.151 133.5,479.5C 130.68,479.248 128.014,479.748 125.5,481C 126.38,482.356 126.714,483.856 126.5,485.5C 122.957,485.128 120.79,483.128 120,479.5C 113.04,482.812 106.04,486.146 99,489.5C 97.0188,489.101 95.5188,488.101 94.5,486.5C 94.5,486.167 94.5,485.833 94.5,485.5C 96.9262,487.218 99.5929,487.718 102.5,487C 105.751,485.423 108.751,483.423 111.5,481C 114.589,480.852 117.422,480.019 120,478.5C 121.855,479.663 123.189,481.33 124,483.5C 123.917,479.749 125.751,477.749 129.5,477.5C 135.905,479.023 136.905,477.356 132.5,472.5C 133.366,469.469 134.866,466.803 137,464.5C 137.822,461.883 138.322,459.216 138.5,456.5C 133.703,456.121 129.036,456.621 124.5,458C 122.722,460.135 122.055,462.635 122.5,465.5C 117.539,466.313 113.206,465.147 109.5,462C 102.833,461.333 96.1667,460.667 89.5,460C 88.5842,459.722 87.9175,459.222 87.5,458.5C 88.1667,458.5 88.5,458.167 88.5,457.5C 89.915,458.289 91.415,458.956 93,459.5C 97.7994,459.733 102.633,459.733 107.5,459.5C 109.556,460.048 111.223,461.214 112.5,463C 115.063,464.079 117.729,464.579 120.5,464.5C 121.002,457.181 125.002,454.014 132.5,455C 133.022,454.439 133.355,453.772 133.5,453C 130.061,445.976 131.061,439.809 136.5,434.5C 130.221,434.597 127.721,431.597 129,425.5C 130.154,424.257 131.488,423.257 133,422.5C 133.522,419.638 134.189,416.971 135,414.5C 131.981,411.147 128.647,408.147 125,405.5C 121.933,406.946 118.767,408.28 115.5,409.5C 113.998,408.917 112.665,408.084 111.5,407C 110.167,406.333 108.833,406.333 107.5,407C 104.926,409.243 102.092,411.076 99,412.5C 93.922,411.802 88.7553,411.802 83.5,412.5C 83.5,411.833 83.5,411.167 83.5,410.5C 87.8055,409.349 91.8055,409.349 95.5,410.5C 96.5,410.5 97.5,410.5 98.5,410.5C 98.8064,407.615 98.4731,404.948 97.5,402.5C 96.1637,393.484 94.6637,384.484 93,375.5C 91.5001,367.591 92.8334,360.258 97,353.5C 98.1711,352.107 99.6711,351.273 101.5,351C 99.2464,349.946 98.913,348.446 100.5,346.5C 102.988,345.312 105.322,343.979 107.5,342.5C 106.02,333.45 109.186,326.45 117,321.5C 117.402,320.128 117.902,318.795 118.5,317.5C 121.092,316.196 122.925,314.196 124,311.5C 127.057,312.852 127.89,312.019 126.5,309C 128.345,304.419 129.012,299.585 128.5,294.5C 126.408,294.439 124.908,293.439 124,291.5C 122.791,286.207 121.791,280.874 121,275.5C 118.215,274.105 115.382,272.772 112.5,271.5C 110.902,272.485 109.235,272.651 107.5,272C 105.017,264.742 102.684,257.409 100.5,250C 103.054,245.764 106.221,241.931 110,238.5C 112.905,234.652 113.072,230.819 110.5,227C 106.898,225.243 103.232,224.076 99.5,223.5C 101.099,223.768 102.432,223.434 103.5,222.5C 107.09,223.628 110.423,225.295 113.5,227.5C 114.338,220.095 114.672,212.761 114.5,205.5C 123.309,208.323 131.976,207.823 140.5,204C 136.205,200.263 133.539,195.763 132.5,190.5C 133.873,190.657 135.207,190.49 136.5,190C 137.574,186.841 139.574,184.507 142.5,183C 149.379,183.101 156.046,182.101 162.5,180C 163.658,178.991 164.325,177.658 164.5,176C 164.041,171.411 162.041,167.744 158.5,165C 149.848,165.082 141.181,165.248 132.5,165.5C 133.651,162.164 133.818,158.831 133,155.5C 133.862,153.913 134.529,152.246 135,150.5C 136.011,149.663 137.178,149.33 138.5,149.5C 138.5,146.833 138.5,144.167 138.5,141.5C 139.473,143.948 139.806,146.615 139.5,149.5C 138.312,150.364 137.145,151.364 136,152.5C 134.747,155.799 134.247,159.132 134.5,162.5C 142.145,163.665 149.812,163.831 157.5,163C 161.941,160.558 165.774,157.392 169,153.5C 169.647,149.108 168.48,145.275 165.5,142C 165.645,141.228 165.978,140.561 166.5,140C 170.167,139.333 173.833,139.333 177.5,140C 179.723,141.733 182.056,143.233 184.5,144.5C 188.055,142.224 191.721,140.224 195.5,138.5C 200.832,138.02 203.165,140.353 202.5,145.5C 207.594,145.417 209.427,147.75 208,152.5C 209.126,151.056 210.626,150.39 212.5,150.5C 216.905,151.364 220.238,153.697 222.5,157.5C 221.04,160.029 220.54,162.696 221,165.5C 227.263,163.638 233.43,161.638 239.5,159.5 Z"/></g>
<g><path style="opacity:1" fill="#0474e4" d="M 201.5,394.5 C 197.298,391.875 193.631,388.542 190.5,384.5C 191.046,383.228 191.379,381.894 191.5,380.5C 190.79,377.411 189.79,374.411 188.5,371.5C 188.703,369.792 189.536,368.459 191,367.5C 191.667,365.167 191.667,362.833 191,360.5C 189.151,354.941 187.484,349.274 186,343.5C 185.268,340.289 183.434,338.289 180.5,337.5C 180.215,335.712 180.548,334.045 181.5,332.5C 184.585,330.756 187.585,328.922 190.5,327C 192.112,326.28 193.612,326.446 195,327.5C 199.489,323.334 202.489,318.334 204,312.5C 208.059,309.453 212.392,306.786 217,304.5C 219.708,305.766 221.208,307.933 221.5,311C 223.199,311.393 224.699,310.893 226,309.5C 227.5,310 229,310.5 230.5,311C 229.333,312.167 228.167,313.333 227,314.5C 225.346,320.089 224.013,325.756 223,331.5C 220.929,332.364 219.262,333.697 218,335.5C 217.876,340.894 218.543,346.227 220,351.5C 223.95,354.157 227.783,353.823 231.5,350.5C 232.85,351.95 234.516,352.617 236.5,352.5C 236.5,351.167 236.5,349.833 236.5,348.5C 241.203,348.563 245.87,348.229 250.5,347.5C 250.914,349.808 251.247,352.142 251.5,354.5C 249.88,362.753 249.213,371.086 249.5,379.5C 245.437,378.891 242.27,380.225 240,383.5C 239.311,382.643 238.478,381.977 237.5,381.5C 234.557,382.244 231.557,382.744 228.5,383C 224.244,387.577 219.91,387.577 215.5,383C 213.299,382.175 211.466,382.675 210,384.5C 211.522,391.8 208.689,395.134 201.5,394.5 Z"/></g>
<g><path style="opacity:1" fill="#0474e4" d="M 180.5,337.5 C 184.647,343.056 186.814,349.39 187,356.5C 187.536,358.869 188.703,360.869 190.5,362.5C 189.644,365.606 188.644,368.606 187.5,371.5C 188.976,375.085 189.809,378.752 190,382.5C 189.19,384.306 188.024,385.806 186.5,387C 186.645,387.772 186.978,388.439 187.5,389C 184.099,388.734 182.433,390.234 182.5,393.5C 179.873,392.908 177.206,392.575 174.5,392.5C 174.326,394.861 173.993,397.194 173.5,399.5C 172.022,399.762 170.689,399.429 169.5,398.5C 167.714,393.82 164.381,392.32 159.5,394C 157.953,396.773 156.953,399.773 156.5,403C 148.53,404.235 141.697,407.735 136,413.5C 132.796,410.631 129.963,407.465 127.5,404C 126.667,403.833 125.833,403.667 125,403.5C 122.301,405.01 119.468,406.344 116.5,407.5C 113.336,405.806 110.002,405.306 106.5,406C 104.333,407.5 102.167,409 100,410.5C 99.0925,399.388 97.4258,388.388 95,377.5C 94.3333,372.167 94.3333,366.833 95,361.5C 96.6787,357.116 99.512,353.783 103.5,351.5C 102.167,350.38 101.667,349.047 102,347.5C 107.795,346.878 109.628,343.878 107.5,338.5C 108.071,333.759 110.238,330.092 114,327.5C 116.978,322.523 120.311,317.856 124,313.5C 128.559,315.439 130.059,314.106 128.5,309.5C 129.134,304.99 129.801,300.49 130.5,296C 129.68,293.846 128.18,292.346 126,291.5C 124.465,286.917 123.798,282.25 124,277.5C 134.439,283.156 145.272,287.989 156.5,292C 159.303,296.146 163.136,298.646 168,299.5C 168.333,303.5 168.667,307.5 169,311.5C 170.996,311.996 172.663,312.996 174,314.5C 175.916,319.638 176.916,324.971 177,330.5C 178.842,332.546 180.009,334.88 180.5,337.5 Z"/></g>
<g><path style="opacity:1" fill="#0374e4" d="M 241.5,256.5 C 246.631,257.231 249.965,260.064 251.5,265C 262.342,265.794 272.675,268.294 282.5,272.5C 282.968,276.131 282.301,279.465 280.5,282.5C 282.695,283.769 284.861,283.769 287,282.5C 288.655,277.857 290.822,273.523 293.5,269.5C 295.347,268.17 296.847,268.503 298,270.5C 297.883,280.83 297.883,291.163 298,301.5C 299.474,305.438 300.641,309.438 301.5,313.5C 298.15,313.335 294.817,313.502 291.5,314C 289.333,314.833 287.833,316.333 287,318.5C 285.021,327.697 285.188,336.864 287.5,346C 287.677,349.812 286.343,352.979 283.5,355.5C 275.699,352.682 268.366,349.016 261.5,344.5C 252.873,345.625 244.206,346.292 235.5,346.5C 235.721,350.795 234.388,351.462 231.5,348.5C 228.725,352.077 225.391,352.911 221.5,351C 220.223,345.615 219.556,340.115 219.5,334.5C 221.144,334.714 222.644,334.38 224,333.5C 225.886,327.644 227.219,321.644 228,315.5C 229.685,313.983 231.185,312.316 232.5,310.5C 229.281,307.511 225.947,307.177 222.5,309.5C 221.571,306.588 220.238,303.921 218.5,301.5C 218.97,299.226 219.97,297.226 221.5,295.5C 219.834,294.008 218.834,292.175 218.5,290C 220.616,281.827 222.616,273.66 224.5,265.5C 229.207,265.051 233.874,264.385 238.5,263.5C 239.783,261.27 240.783,258.937 241.5,256.5 Z"/></g>
<g><path style="opacity:1" fill="#0274e4" d="M 220.5,170.5 C 228.328,171.969 234.661,175.969 239.5,182.5C 237.571,185.677 236.238,189.011 235.5,192.5C 236.248,196.67 237.582,200.67 239.5,204.5C 237.702,207.289 237.202,210.289 238,213.5C 241.661,220.859 245.827,228.026 250.5,235C 248.387,236.837 246.554,239.004 245,241.5C 243.649,248.555 241.316,255.221 238,261.5C 233.529,262.259 229.029,263.092 224.5,264C 223.874,264.75 223.374,265.584 223,266.5C 220.843,273.793 219.01,281.126 217.5,288.5C 217.64,291.043 218.306,293.377 219.5,295.5C 218.208,297.667 217.375,300 217,302.5C 212.687,303.806 209.187,306.306 206.5,310C 205.207,310.49 203.873,310.657 202.5,310.5C 202.662,312.527 202.495,314.527 202,316.5C 200.376,319.992 198.042,322.992 195,325.5C 194.107,324.919 193.107,324.585 192,324.5C 188.274,327.513 184.107,329.346 179.5,330C 179,329.5 178.5,329 178,328.5C 177.869,323.318 176.869,318.318 175,313.5C 173.663,311.996 171.996,310.996 170,310.5C 169.667,306.5 169.333,302.5 169,298.5C 166.72,296.963 164.22,295.797 161.5,295C 159.072,291.902 156.072,289.569 152.5,288C 138.532,283.263 125.365,277.096 113,269.5C 111.333,270.833 109.667,270.833 108,269.5C 106.475,262.734 104.642,256.067 102.5,249.5C 106.096,245.048 109.596,240.381 113,235.5C 114.879,226.273 115.879,216.94 116,207.5C 118.627,208.916 121.46,209.583 124.5,209.5C 129.901,208.816 135.235,207.816 140.5,206.5C 140.441,211.404 142.608,214.737 147,216.5C 148.1,220.222 150.266,223.056 153.5,225C 154.833,225.667 156.167,225.667 157.5,225C 161.986,218.569 166.653,212.236 171.5,206C 174.068,204.096 176.401,204.43 178.5,207C 180.833,207.667 183.167,207.667 185.5,207C 192.054,201.779 197.888,195.946 203,189.5C 202.398,184.7 199.898,181.033 195.5,178.5C 198.785,177.676 202.118,177.176 205.5,177C 210.351,174.235 215.351,172.068 220.5,170.5 Z"/></g>
<g><path style="opacity:1" fill="#0574e4" d="M 192.5,140.5 C 195.249,140.274 197.916,140.607 200.5,141.5C 201.452,143.045 201.785,144.712 201.5,146.5C 203.144,146.286 204.644,146.62 206,147.5C 206.18,149.488 206.014,151.488 205.5,153.5C 211.064,151.341 215.897,152.341 220,156.5C 219.619,161.69 218.452,166.69 216.5,171.5C 212.606,171.186 209.273,172.353 206.5,175C 202.5,175.333 198.5,175.667 194.5,176C 192.682,179.387 193.682,181.387 197.5,182C 199.584,183.501 200.917,185.501 201.5,188C 198.076,191.01 195.243,194.51 193,198.5C 189.399,203.042 184.899,205.542 179.5,206C 176.42,203.184 173.087,202.851 169.5,205C 165.387,211.252 161.054,217.252 156.5,223C 151.929,223.439 149.429,221.272 149,216.5C 147.043,215.111 145.21,213.611 143.5,212C 142.628,204.597 139.295,198.43 133.5,193.5C 137.037,191.285 140.037,188.451 142.5,185C 150.396,185.223 157.896,183.723 165,180.5C 166.702,173.77 164.869,168.103 159.5,163.5C 163.492,161.003 166.992,158.003 170,154.5C 170.781,153.271 171.281,151.938 171.5,150.5C 170.777,148.218 170.443,145.884 170.5,143.5C 169.325,143.719 168.325,143.386 167.5,142.5C 173.904,140.213 179.237,141.546 183.5,146.5C 187.061,145.26 190.061,143.26 192.5,140.5 Z"/></g>
<g><path style="opacity:1" fill="#0574e4" d="M 251.5,363.5 C 252.496,363.414 253.329,363.748 254,364.5C 254.189,369.948 256.356,374.281 260.5,377.5C 262.5,377 264.5,376.5 266.5,376C 270.854,370.975 276.188,369.142 282.5,370.5C 282.677,376.441 281.677,382.108 279.5,387.5C 280.491,391.131 281.324,394.798 282,398.5C 283.423,401.592 285.757,403.592 289,404.5C 289.833,406.167 290.667,407.833 291.5,409.5C 289.821,410.782 287.987,411.782 286,412.5C 285.549,417.57 283.382,421.736 279.5,425C 277.822,424.888 276.155,424.388 274.5,423.5C 270.403,425.553 269.569,428.553 272,432.5C 274.333,435.167 276.667,437.833 279,440.5C 281.592,439.018 283.925,439.352 286,441.5C 287.457,444.366 287.79,447.366 287,450.5C 286.74,454.424 285.74,458.091 284,461.5C 279.712,465.09 274.879,467.923 269.5,470C 268.911,471.873 269.578,473.54 271.5,475C 268.613,477.12 265.447,478.62 262,479.5C 261.704,482.706 261.204,485.872 260.5,489C 261.477,490.497 262.477,491.997 263.5,493.5C 260.643,498.83 260.976,503.996 264.5,509C 263.552,509.483 262.552,509.649 261.5,509.5C 261.649,510.552 261.483,511.552 261,512.5C 258.071,511.724 256.404,513.057 256,516.5C 253.157,509.982 249.657,503.815 245.5,498C 243.167,497.333 240.833,497.333 238.5,498C 235.264,501.019 231.931,501.186 228.5,498.5C 227.674,497.549 227.508,496.549 228,495.5C 230.579,494.631 232.412,492.965 233.5,490.5C 230.615,489.193 228.282,487.193 226.5,484.5C 227.545,482.795 228.878,481.295 230.5,480C 228.331,478.672 227.998,477.006 229.5,475C 228.976,470.434 226.642,467.267 222.5,465.5C 224.078,464.702 225.744,464.202 227.5,464C 228.675,461.317 230.342,458.983 232.5,457C 235.543,456.202 238.376,455.035 241,453.5C 243.316,448.872 245.816,444.372 248.5,440C 248.281,434.871 247.781,429.704 247,424.5C 249.762,423.019 252.429,421.353 255,419.5C 252.51,401.001 251.344,382.335 251.5,363.5 Z"/></g>
<g><path style="opacity:1" fill="#2d81e6" d="M 359.5,345.5 C 362.71,351.936 366.21,358.269 370,364.5C 371.025,368.46 371.859,372.46 372.5,376.5C 372.812,379.708 371.645,380.708 369,379.5C 368.667,374.5 368.333,369.5 368,364.5C 362.957,359.086 360.124,352.753 359.5,345.5 Z"/></g>
<g><path style="opacity:1" fill="#0675e4" d="M 201.5,394.5 C 205.073,396.2 208.239,395.533 211,392.5C 211.101,389.3 211.768,386.3 213,383.5C 216.518,387.066 220.684,388.566 225.5,388C 226.5,387 227.5,386 228.5,385C 231.557,384.744 234.557,384.244 237.5,383.5C 238.167,384.167 238.833,384.833 239.5,385.5C 242.317,381.992 245.983,380.659 250.5,381.5C 249.868,393.076 251.202,404.409 254.5,415.5C 253.326,418.838 250.993,421.005 247.5,422C 242.657,421.419 237.823,421.585 233,422.5C 229.22,422.468 226.72,420.635 225.5,417C 222.744,415.364 220.078,413.531 217.5,411.5C 217.167,412 216.833,412.5 216.5,413C 217.531,416.143 218.031,419.309 218,422.5C 214.882,427.286 211.382,431.786 207.5,436C 204.044,435.907 201.044,436.907 198.5,439C 195.167,439.333 191.833,439.667 188.5,440C 187.5,441 186.5,442 185.5,443C 186.931,443.465 188.097,444.299 189,445.5C 190.914,447.748 192.414,450.248 193.5,453C 192.227,460.239 189.394,461.072 185,455.5C 183.403,450.719 180.236,448.053 175.5,447.5C 175.62,445.801 175.954,444.135 176.5,442.5C 175.238,439.978 174.571,437.311 174.5,434.5C 176.199,434.66 177.866,434.494 179.5,434C 181.026,432.113 183.026,431.113 185.5,431C 186.43,429.806 187.097,428.473 187.5,427C 185.229,423.907 184.062,420.407 184,416.5C 179.351,411.778 174.851,406.778 170.5,401.5C 171.991,400.756 173.491,400.09 175,399.5C 175.667,397.5 176.333,395.5 177,393.5C 178.897,395.016 181.064,395.683 183.5,395.5C 183.5,394.167 183.5,392.833 183.5,391.5C 185.199,391.66 186.866,391.494 188.5,391C 188.944,389.467 189.277,387.967 189.5,386.5C 192.795,390.153 196.795,392.819 201.5,394.5 Z"/></g>
<g><path style="opacity:1" fill="#0374e4" d="M 317.5,386.5 C 318.5,386.5 319.5,386.5 320.5,386.5C 321.969,393.109 323.136,399.775 324,406.5C 325,407.5 326,408.5 327,409.5C 327.902,413.122 329.402,416.455 331.5,419.5C 323.976,425.72 323.642,432.22 330.5,439C 333.5,440 336.5,441 339.5,442C 342.721,443.115 343.388,445.115 341.5,448C 342.442,452.88 343.442,457.713 344.5,462.5C 343.112,479.484 341.945,496.484 341,513.5C 335.049,517.429 329.049,521.429 323,525.5C 322.718,529.488 321.885,533.321 320.5,537C 317.228,536.616 313.894,536.949 310.5,538C 306.038,540.23 301.372,541.897 296.5,543C 294.252,544.914 291.752,546.414 289,547.5C 288.127,547.265 287.293,546.931 286.5,546.5C 284.564,543.618 282.398,540.951 280,538.5C 278.856,538.911 277.689,539.244 276.5,539.5C 274.014,536.677 270.848,535.344 267,535.5C 264.472,535.725 261.972,536.058 259.5,536.5C 259.5,537.5 259.5,538.5 259.5,539.5C 257.833,539.5 256.167,539.5 254.5,539.5C 254.664,542.187 254.497,544.854 254,547.5C 250.088,549.219 246.255,551.219 242.5,553.5C 240.471,549.304 237.304,546.304 233,544.5C 230.626,538.062 229.626,531.395 230,524.5C 233.3,519.604 235.633,514.27 237,508.5C 239.259,505.215 241.426,501.882 243.5,498.5C 244.818,500.751 246.484,502.751 248.5,504.5C 250.817,509.282 253.15,514.116 255.5,519C 255.833,519.167 256.167,519.333 256.5,519.5C 257.205,517.328 258.205,515.328 259.5,513.5C 260.451,514.326 261.451,514.492 262.5,514C 263.255,511.867 264.588,510.2 266.5,509C 264.205,506.455 262.871,503.455 262.5,500C 264.204,497.084 265.204,493.917 265.5,490.5C 264.5,490.5 263.5,490.5 262.5,490.5C 263.207,487.214 263.54,483.881 263.5,480.5C 267.232,479.801 270.565,478.134 273.5,475.5C 271.561,473.878 271.228,472.044 272.5,470C 276.04,469.4 278.707,467.566 280.5,464.5C 282.045,463.548 283.712,463.215 285.5,463.5C 285.46,460.575 286.293,457.909 288,455.5C 291.064,448.7 289.898,442.866 284.5,438C 282.443,437.695 280.443,437.695 278.5,438C 276.36,434.879 274.36,431.713 272.5,428.5C 273.761,424.869 275.761,424.536 278.5,427.5C 282.024,424.805 284.858,421.471 287,417.5C 287.494,415.866 287.66,414.199 287.5,412.5C 289.288,412.215 290.955,412.548 292.5,413.5C 293.354,417.433 295.354,418.266 298.5,416C 300.215,415.223 301.215,413.89 301.5,412C 300.784,409.208 300.451,406.374 300.5,403.5C 307.018,403.098 309.685,399.764 308.5,393.5C 311.308,390.833 314.308,388.499 317.5,386.5 Z"/></g>
<g><path style="opacity:1" fill="#0474e4" d="M 159.5,395.5 C 165.789,395.11 169.455,398.11 170.5,404.5C 173.982,406.644 176.315,409.644 177.5,413.5C 181.71,415.37 183.71,418.704 183.5,423.5C 184.382,424.76 185.382,425.926 186.5,427C 182.453,430.395 177.953,432.895 173,434.5C 172.915,437.361 173.749,440.028 175.5,442.5C 175.643,447.387 173.643,451.054 169.5,453.5C 171.829,455.35 172.163,457.517 170.5,460C 170.796,461.888 171.296,463.722 172,465.5C 174.333,466.833 176.667,468.167 179,469.5C 180.128,471.345 180.628,473.345 180.5,475.5C 177.482,475.665 174.482,475.498 171.5,475C 169.361,473.596 167.028,472.763 164.5,472.5C 161.715,474.089 158.715,474.589 155.5,474C 150.05,471.575 145.383,467.908 141.5,463C 138.721,462.851 138.221,462.017 140,460.5C 140.817,456.289 138.984,454.289 134.5,454.5C 133.705,449.851 133.539,445.184 134,440.5C 135.697,438.301 137.197,435.968 138.5,433.5C 136.149,431.771 133.482,431.104 130.5,431.5C 130.006,427.473 131.506,424.473 135,422.5C 137.966,411.233 145.466,405.399 157.5,405C 159.227,402.096 159.893,398.93 159.5,395.5 Z"/></g>
<g><path style="opacity:1" fill="#0575e4" d="M 88.5,457.5 C 87.6236,457.631 86.9569,457.298 86.5,456.5C 87.4465,454.941 88.1132,453.274 88.5,451.5C 86.6729,445.191 85.0063,438.857 83.5,432.5C 84.1556,433.278 84.9889,433.944 86,434.5C 87.0299,434.164 87.5299,433.497 87.5,432.5C 88.9252,429.277 88.5919,426.11 86.5,423C 85.552,422.517 84.552,422.351 83.5,422.5C 83.5,419.167 83.5,415.833 83.5,412.5C 88.7553,411.802 93.922,411.802 99,412.5C 102.092,411.076 104.926,409.243 107.5,407C 108.833,406.333 110.167,406.333 111.5,407C 112.665,408.084 113.998,408.917 115.5,409.5C 118.767,408.28 121.933,406.946 125,405.5C 128.647,408.147 131.981,411.147 135,414.5C 134.189,416.971 133.522,419.638 133,422.5C 131.488,423.257 130.154,424.257 129,425.5C 127.721,431.597 130.221,434.597 136.5,434.5C 131.061,439.809 130.061,445.976 133.5,453C 133.355,453.772 133.022,454.439 132.5,455C 125.002,454.014 121.002,457.181 120.5,464.5C 117.729,464.579 115.063,464.079 112.5,463C 111.223,461.214 109.556,460.048 107.5,459.5C 102.633,459.733 97.7994,459.733 93,459.5C 91.415,458.956 89.915,458.289 88.5,457.5 Z"/></g>
<g><path style="opacity:1" fill="#65a9ee" d="M 97.5,402.5 C 98.4731,404.948 98.8064,407.615 98.5,410.5C 97.5,410.5 96.5,410.5 95.5,410.5C 97.2018,408.2 97.8685,405.533 97.5,402.5 Z"/></g>
<g><path style="opacity:1" fill="#0574e4" d="M 205.5,486.5 C 202.728,487.371 200.062,487.371 197.5,486.5C 191.535,486.176 185.869,484.842 180.5,482.5C 181.695,481.033 181.695,479.533 180.5,478C 182.967,475.355 183.134,472.522 181,469.5C 178.805,467.07 176.138,465.403 173,464.5C 172.793,460.911 172.293,457.411 171.5,454C 173.676,452.323 175.676,450.489 177.5,448.5C 180.185,451.19 182.518,454.19 184.5,457.5C 186.193,459.027 188.027,460.36 190,461.5C 192.85,459.135 194.684,456.135 195.5,452.5C 192.971,449.136 190.637,445.636 188.5,442C 195.088,441.518 201.422,440.185 207.5,438C 212.405,432.931 216.738,427.431 220.5,421.5C 219.248,419.265 218.748,416.931 219,414.5C 222.737,417.114 225.903,420.281 228.5,424C 233.889,423.968 239.222,424.135 244.5,424.5C 245.289,427.646 245.955,430.813 246.5,434C 245.167,436 245.167,438 246.5,440C 244.072,442.691 242.572,445.858 242,449.5C 241.044,450.579 240.211,451.745 239.5,453C 236.363,453.601 233.363,454.601 230.5,456C 228.549,457.734 227.549,459.901 227.5,462.5C 225.167,462.5 222.833,462.5 220.5,462.5C 219.833,465.833 221.167,467.833 224.5,468.5C 227.313,471.247 227.979,474.414 226.5,478C 226.905,478.945 227.572,479.612 228.5,480C 224.705,481.731 221.038,483.731 217.5,486C 213.514,486.499 209.514,486.666 205.5,486.5 Z"/></g>
<g><path style="opacity:1" fill="#bad5f7" d="M 87.5,432.5 C 87.5299,433.497 87.0299,434.164 86,434.5C 84.9889,433.944 84.1556,433.278 83.5,432.5C 82.095,430.775 81.595,428.775 82,426.5C 82.5664,429.788 84.3998,431.788 87.5,432.5 Z"/></g>
<g><path style="opacity:1" fill="#0c76e4" d="M 94.5,485.5 C 92.8706,483.94 91.704,484.273 91,486.5C 87.0272,477.385 85.8606,468.052 87.5,458.5C 87.9175,459.222 88.5842,459.722 89.5,460C 96.1667,460.667 102.833,461.333 109.5,462C 113.206,465.147 117.539,466.313 122.5,465.5C 122.055,462.635 122.722,460.135 124.5,458C 129.036,456.621 133.703,456.121 138.5,456.5C 138.322,459.216 137.822,461.883 137,464.5C 134.866,466.803 133.366,469.469 132.5,472.5C 136.905,477.356 135.905,479.023 129.5,477.5C 125.751,477.749 123.917,479.749 124,483.5C 123.189,481.33 121.855,479.663 120,478.5C 117.422,480.019 114.589,480.852 111.5,481C 108.751,483.423 105.751,485.423 102.5,487C 99.5929,487.718 96.9262,487.218 94.5,485.5 Z"/></g>
<g><path style="opacity:1" fill="#0274e4" d="M 192.5,487.5 C 200.5,488.833 208.5,488.833 216.5,487.5C 218.928,486.788 221.261,485.788 223.5,484.5C 224.429,485.689 224.762,487.022 224.5,488.5C 227.226,488.264 229.559,489.097 231.5,491C 223.55,495.66 224.05,499.494 233,502.5C 235.679,501.72 238.179,500.887 240.5,500C 235.394,508.663 231.061,517.663 227.5,527C 228.18,531.477 228.68,535.977 229,540.5C 230.667,544.833 233.667,547.833 238,549.5C 239.606,554.005 241.773,558.172 244.5,562C 240.254,563.328 236.588,561.994 233.5,558C 231.166,557.661 228.832,557.828 226.5,558.5C 219.966,556.229 213.299,554.562 206.5,553.5C 206.112,547.95 203.112,545.45 197.5,546C 198.367,543.684 197.701,541.684 195.5,540C 193.166,539.661 190.832,539.828 188.5,540.5C 186.328,541.546 184.161,542.546 182,543.5C 174.598,542.581 168.264,539.581 163,534.5C 160.001,528.498 156.501,522.832 152.5,517.5C 153.818,515.088 153.651,512.754 152,510.5C 150.019,508.343 147.686,506.676 145,505.5C 144.594,502.085 142.928,499.418 140,497.5C 138.292,491.963 136.459,486.463 134.5,481C 135.289,479.374 136.289,477.874 137.5,476.5C 133.675,471.742 134.509,467.742 140,464.5C 142.767,467.267 145.6,470.1 148.5,473C 151.003,473.129 153.003,474.129 154.5,476C 159.049,475.195 163.716,474.861 168.5,475C 171.607,476.691 174.941,477.858 178.5,478.5C 179.615,479.598 179.615,480.765 178.5,482C 178.759,483.261 179.426,484.261 180.5,485C 184.494,485.945 188.494,486.778 192.5,487.5 Z"/></g>
<g><path style="opacity:1" fill="#0675e4" d="M 106.5,534.5 C 105.883,532.771 104.883,531.271 103.5,530C 104.622,526.591 104.789,523.091 104,519.5C 99.293,509.098 95.4597,498.432 92.5,487.5C 92.9569,486.702 93.6236,486.369 94.5,486.5C 95.5188,488.101 97.0188,489.101 99,489.5C 106.04,486.146 113.04,482.812 120,479.5C 120.79,483.128 122.957,485.128 126.5,485.5C 126.714,483.856 126.38,482.356 125.5,481C 128.014,479.748 130.68,479.248 133.5,479.5C 134.274,486.151 136.107,492.484 139,498.5C 141.928,500.418 143.594,503.085 144,506.5C 146.628,508.126 148.961,510.126 151,512.5C 151,514.5 151,516.5 151,518.5C 154.749,523.662 158.249,528.996 161.5,534.5C 157.583,536.708 153.75,539.041 150,541.5C 149.747,544.2 149.747,546.867 150,549.5C 145.487,543.284 139.82,541.95 133,545.5C 125.591,541.88 118.091,538.38 110.5,535C 109.207,534.51 107.873,534.343 106.5,534.5 Z"/></g>
<g><path style="opacity:1" fill="#a9cdf5" d="M 197.5,486.5 C 200.062,487.371 202.728,487.371 205.5,486.5C 208.962,487.482 212.629,487.815 216.5,487.5C 208.5,488.833 200.5,488.833 192.5,487.5C 194.415,487.784 196.081,487.451 197.5,486.5 Z"/></g>
<g><path style="opacity:1" fill="#0574e4" d="M 353.5,523.5 C 354.376,523.369 355.043,523.702 355.5,524.5C 353.454,529.05 350.454,532.883 346.5,536C 341.458,539.521 336.125,542.521 330.5,545C 322.349,551.907 314.016,558.574 305.5,565C 298.814,568.509 291.814,571.342 284.5,573.5C 283.158,571.995 281.492,571.328 279.5,571.5C 279.714,573.144 279.38,574.644 278.5,576C 271.314,579.706 263.647,582.039 255.5,583C 249.744,585.516 243.744,587.182 237.5,588C 234.458,590.875 230.791,592.208 226.5,592C 222.343,594.664 218.343,597.497 214.5,600.5C 210.554,600.512 208.887,598.512 209.5,594.5C 207.516,594.617 205.85,593.95 204.5,592.5C 206.389,591.396 208.055,590.063 209.5,588.5C 207.567,585.905 207.567,583.572 209.5,581.5C 207.977,579.717 205.977,579.051 203.5,579.5C 204.014,577.488 204.18,575.488 204,573.5C 201.468,572.994 199.302,571.827 197.5,570C 198.128,566.033 200.295,563.199 204,561.5C 204.495,559.527 204.662,557.527 204.5,555.5C 211.828,555.749 218.828,557.415 225.5,560.5C 229.745,558.473 233.078,559.306 235.5,563C 238.627,563.392 241.627,564.225 244.5,565.5C 245.553,564.562 246.22,563.395 246.5,562C 245.637,559.773 244.637,557.607 243.5,555.5C 247.383,552.702 251.55,550.368 256,548.5C 256.018,546.203 255.851,543.869 255.5,541.5C 256.873,541.657 258.207,541.49 259.5,541C 265.203,536.237 270.703,536.404 276,541.5C 277.55,541.05 279.05,540.883 280.5,541C 282.167,543.333 283.833,545.667 285.5,548C 286.766,548.309 287.933,548.809 289,549.5C 299.118,543.348 309.952,539.848 321.5,539C 323.519,534.734 324.852,530.234 325.5,525.5C 330.615,521.698 335.949,518.365 341.5,515.5C 343.167,516.5 344.5,517.833 345.5,519.5C 348.423,520.448 351.089,521.781 353.5,523.5 Z"/></g>
<g><path style="opacity:1" fill="#0875e4" d="M 161.5,602.5 C 152.751,599.398 143.751,595.898 134.5,592C 120.926,579.352 112.759,563.852 110,545.5C 108.519,542.89 107.352,540.223 106.5,537.5C 107.601,536.402 108.934,536.235 110.5,537C 118.091,540.38 125.591,543.88 133,547.5C 134.726,547.054 136.226,546.221 137.5,545C 139.167,544.333 140.833,544.333 142.5,545C 145.312,546.977 147.978,549.144 150.5,551.5C 151.72,551.113 152.387,550.28 152.5,549C 151.327,546.479 151.327,543.979 152.5,541.5C 155.877,539.13 159.544,537.963 163.5,538C 168.166,540.754 173.166,542.754 178.5,544C 176.487,544.68 175.154,546.013 174.5,548C 175.8,550.437 176.8,552.937 177.5,555.5C 176.127,555.657 174.793,555.49 173.5,555C 170.464,550.124 166.464,548.791 161.5,551C 164.298,553.503 166.798,556.337 169,559.5C 169.495,561.473 169.662,563.473 169.5,565.5C 167.143,565.337 164.81,565.503 162.5,566C 163.894,566.956 164.561,568.289 164.5,570C 163.497,572.468 162.997,574.968 163,577.5C 164.833,580.667 167.333,583.167 170.5,585C 168.627,587.209 166.46,589.042 164,590.5C 163.221,592.906 164.054,594.573 166.5,595.5C 164.076,597.37 162.409,599.703 161.5,602.5 Z"/></g>
<g><path style="opacity:1" fill="#0c75e4" d="M 212.5,602.5 C 212.389,603.117 212.056,603.617 211.5,604C 207.833,604.333 204.167,604.667 200.5,605C 198.481,606.866 196.148,608.033 193.5,608.5C 190.571,607.537 187.571,606.87 184.5,606.5C 181.497,607.138 178.497,607.305 175.5,607C 174.687,605.197 173.52,603.697 172,602.5C 169.566,603.322 167.066,603.656 164.5,603.5C 164.343,602.127 164.51,600.793 165,599.5C 169.464,597.245 169.63,594.745 165.5,592C 167.812,589.688 170.145,587.355 172.5,585C 170.093,582.715 167.593,580.549 165,578.5C 164.639,575.563 165.139,572.73 166.5,570C 166.355,569.228 166.022,568.561 165.5,568C 169.294,568.037 171.294,566.204 171.5,562.5C 170.663,558.173 168.33,554.839 164.5,552.5C 167.826,551.652 170.493,552.819 172.5,556C 174.436,556.813 176.436,557.313 178.5,557.5C 180.43,553.455 179.43,550.288 175.5,548C 179.224,546.228 182.89,544.395 186.5,542.5C 189.5,541.167 192.5,541.167 195.5,542.5C 196.833,543.833 196.833,545.167 195.5,546.5C 198.027,547.214 200.527,547.88 203,548.5C 203.402,549.872 203.902,551.205 204.5,552.5C 203.366,555.07 202.532,557.736 202,560.5C 194.699,566.096 194.866,571.096 202.5,575.5C 201.165,579.689 202.832,581.856 207.5,582C 206.55,584.432 206.55,586.932 207.5,589.5C 205.052,589.085 203.719,590.085 203.5,592.5C 205.927,594.163 207.427,596.496 208,599.5C 209.409,600.781 210.909,601.781 212.5,602.5 Z"/></g>
</svg>
