<svg xmlns="http://www.w3.org/2000/svg" version="1.1" xmlns:xlink="http://www.w3.org/1999/xlink" width="512" height="512" x="0" y="0" viewBox="0 0 512 512" style="enable-background:new 0 0 512 512" xml:space="preserve" class=""><g><path fill="#fbc56d" d="M30 60h452v390H30zm0 0" opacity="1" data-original="#fbc56d" class=""></path><g fill="#ebae56"><path d="M256 60h226v390H256zM91 300h120v30H91zM91 360h120v30H91zm0 0" fill="#ebae56" opacity="1" data-original="#ebae56" class=""></path></g><path fill="#61729b" d="M361 150c0 16.5-13.5 30-30 30H181c-16.5 0-30-13.5-30-30s13.5-30 30-30h150c16.5 0 30 13.5 30 30zm0 0" opacity="1" data-original="#61729b"></path><path fill="#47568c" d="M361 150c0 16.5-13.5 30-30 30h-75v-60h75c16.5 0 30 13.5 30 30zm0 0" opacity="1" data-original="#47568c"></path><path fill="#ebae56" d="M0 0h512v90H0zm0 0" opacity="1" data-original="#ebae56" class=""></path><path fill="#cc9249" d="M256 0h256v90H256zm0 0" opacity="1" data-original="#cc9249"></path></g></svg>