<svg xmlns="http://www.w3.org/2000/svg" version="1.1" xmlns:xlink="http://www.w3.org/1999/xlink" width="512" height="512" x="0" y="0" viewBox="0 0 682.667 682.667" style="enable-background:new 0 0 512 512" xml:space="preserve" class=""><g><defs><clipPath id="a" clipPathUnits="userSpaceOnUse"><path d="M0 512h512V0H0Z" fill="#000000" opacity="1" data-original="#000000"></path></clipPath></defs><g clip-path="url(#a)" transform="matrix(1.33333 0 0 -1.33333 0 682.667)"><path d="M0 0c-20.793 20.793-20.793 54.504 0 75.296l123.562 123.563 75.297-75.296L75.296 0C54.504-20.792 20.792-20.792 0 0" style="fill-opacity:1;fill-rule:nonzero;stroke:none" transform="translate(28.686 25.575)" fill="#ff6977" data-original="#ff6977" class=""></path><path d="M0 0v0c-20.793 20.793-20.793 54.504 0 75.296l123.562 123.563 75.297-75.296L75.296 0C54.504-20.792 20.792-20.792 0 0Z" style="stroke-width:20;stroke-linecap:round;stroke-linejoin:round;stroke-miterlimit:10;stroke-dasharray:none;stroke-opacity:1" transform="translate(28.686 25.575)" fill="none" stroke="#000000" stroke-width="20" stroke-linecap="round" stroke-linejoin="round" stroke-miterlimit="10" stroke-dasharray="none" stroke-opacity="" data-original="#000000" class=""></path><path d="m0 0 151.908 151.908-50.025 50.024L-50.025 50.025Z" style="fill-opacity:1;fill-rule:nonzero;stroke:none" transform="translate(214.909 161.774)" fill="#eff3f3" data-original="#eff3f3" class=""></path><path d="m0 0-21.611 21.611L4.171 47.392c35.2 35.2 92.272 35.2 127.473 0l80.302-80.303-7.898-14.481 16.03-16.03 17.699 4.68 23.176-23.175c6.103-6.104 6.103-16 0-22.104l-48.326-48.326c-6.104-6.103-16-6.103-22.104 0l-23.175 23.176 4.68 17.699-16.03 16.03-25.671-19.088-50.024 50.025c11.632 11.632 11.632 30.493 0 42.126L57.923 0C41.928 15.995 15.995 15.995 0 0Z" style="fill-opacity:1;fill-rule:nonzero;stroke:none" transform="translate(236.49 428.211)" fill="#8690a6" data-original="#8690a6" class=""></path><path d="m0 0-47.409-47.409L2.616-97.433l27.409 27.408" style="stroke-width:20;stroke-linecap:round;stroke-linejoin:round;stroke-miterlimit:10;stroke-dasharray:none;stroke-opacity:1" transform="translate(212.293 259.207)" fill="none" stroke="#000000" stroke-width="20" stroke-linecap="round" stroke-linejoin="round" stroke-miterlimit="10" stroke-dasharray="none" stroke-opacity="" data-original="#000000" class=""></path><path d="m0 0 44.874 44.874-50.025 50.024L-68.9 31.15" style="stroke-width:20;stroke-linecap:round;stroke-linejoin:round;stroke-miterlimit:10;stroke-dasharray:none;stroke-opacity:1" transform="translate(321.942 268.808)" fill="none" stroke="#000000" stroke-width="20" stroke-linecap="round" stroke-linejoin="round" stroke-miterlimit="10" stroke-dasharray="none" stroke-opacity="" data-original="#000000" class=""></path><path d="m0 0-21.611 21.611L4.171 47.392c35.2 35.2 92.272 35.2 127.473 0v0l80.302-80.303-7.898-14.481 16.03-16.03 17.699 4.68 23.176-23.175c6.103-6.104 6.103-16 0-22.104l-48.326-48.326c-6.104-6.103-16-6.103-22.104 0l-23.175 23.176 4.68 17.699-16.03 16.03-25.671-19.088-50.024 50.025c11.632 11.632 11.632 30.493 0 42.126L57.923 0C41.928 15.995 15.995 15.995 0 0Z" style="stroke-width:20;stroke-linecap:round;stroke-linejoin:round;stroke-miterlimit:10;stroke-dasharray:none;stroke-opacity:1" transform="translate(236.49 428.211)" fill="none" stroke="#000000" stroke-width="20" stroke-linecap="round" stroke-linejoin="round" stroke-miterlimit="10" stroke-dasharray="none" stroke-opacity="" data-original="#000000" class=""></path><path d="M0 0c20.793 20.793 20.793 54.504 0 75.296l-131.768 131.769-75.297-75.297L-75.296 0C-54.504-20.792-20.792-20.792 0 0" style="fill-opacity:1;fill-rule:nonzero;stroke:none" transform="translate(486.406 25.613)" fill="#276096" data-original="#ffcb7c" class="" opacity="1"></path><path d="m0 0 52.577 52.577c6.274 6.274 16.446 6.274 22.719 0l35.701-35.701L35.701-58.42 0-22.719C-6.274-16.445-6.274-6.274 0 0" style="fill-opacity:1;fill-rule:nonzero;stroke:none" transform="translate(243.64 215.802)" fill="#ffffff" data-original="#ffffff" class=""></path><path d="m0 0 37.648 37.648-186.358 186.358-37.648-37.648Z" style="fill-opacity:1;fill-rule:nonzero;stroke:none" transform="translate(251.105 223.266)" fill="#eff3f3" data-original="#eff3f3" class=""></path><path d="m0 0 26.667 26.667L75.42-.123l16.975-27.956-37.648-37.648-27.956 16.975Z" style="fill-opacity:1;fill-rule:nonzero;stroke:none" transform="translate(10 475.352)" fill="#8690a6" data-original="#8690a6" class=""></path><path d="m0 0 24.654-24.654c20.793-20.793 54.504-20.793 75.296 0v0c20.793 20.792 20.793 54.504 0 75.296L-31.818 182.411l-75.296-75.297 43.476-43.476" style="stroke-width:20;stroke-linecap:round;stroke-linejoin:round;stroke-miterlimit:10;stroke-dasharray:none;stroke-opacity:1" transform="translate(386.455 50.267)" fill="none" stroke="#000000" stroke-width="20" stroke-linecap="round" stroke-linejoin="round" stroke-miterlimit="10" stroke-dasharray="none" stroke-opacity="" data-original="#000000" class=""></path><path d="m0 0 52.577 52.577c6.274 6.274 16.446 6.274 22.719 0l35.701-35.701L35.701-58.42 0-22.719C-6.274-16.445-6.274-6.274 0 0Z" style="stroke-width:20;stroke-linecap:round;stroke-linejoin:round;stroke-miterlimit:10;stroke-dasharray:none;stroke-opacity:1" transform="translate(243.64 215.802)" fill="none" stroke="#000000" stroke-width="20" stroke-linecap="round" stroke-linejoin="round" stroke-miterlimit="10" stroke-dasharray="none" stroke-opacity="" data-original="#000000" class=""></path><path d="m0 0 37.648 37.648-186.358 186.358-37.648-37.648Z" style="stroke-width:20;stroke-linecap:round;stroke-linejoin:round;stroke-miterlimit:10;stroke-dasharray:none;stroke-opacity:1" transform="translate(251.105 223.266)" fill="none" stroke="#000000" stroke-width="20" stroke-linecap="round" stroke-linejoin="round" stroke-miterlimit="10" stroke-dasharray="none" stroke-opacity="" data-original="#000000" class=""></path><path d="m0 0 26.667 26.667L75.42-.123l16.975-27.956-37.648-37.648-27.956 16.975Z" style="stroke-width:20;stroke-linecap:round;stroke-linejoin:round;stroke-miterlimit:10;stroke-dasharray:none;stroke-opacity:1" transform="translate(10 475.352)" fill="none" stroke="#000000" stroke-width="20" stroke-linecap="round" stroke-linejoin="round" stroke-miterlimit="10" stroke-dasharray="none" stroke-opacity="" data-original="#000000" class=""></path><path d="M0 0v0" style="stroke-width:20;stroke-linecap:round;stroke-linejoin:round;stroke-miterlimit:10;stroke-dasharray:none;stroke-opacity:1" transform="translate(354.637 82.085)" fill="none" stroke="#000000" stroke-width="20" stroke-linecap="round" stroke-linejoin="round" stroke-miterlimit="10" stroke-dasharray="none" stroke-opacity="" data-original="#000000" class=""></path></g></g></svg>