<svg xmlns="http://www.w3.org/2000/svg" version="1.1" xmlns:xlink="http://www.w3.org/1999/xlink" width="512" height="512" x="0" y="0" viewBox="0 0 512.004 512.004" style="enable-background:new 0 0 512 512" xml:space="preserve" class=""><g><path fill="#0073e2" d="M93.877 308.367h305.047c48.011 0 89.921 32.53 101.83 79.041 6.353 24.812-12.389 48.959-38.002 48.959h-351.8C55.197 436.367 10 391.17 10 335.416V208.15h54.146z" opacity="1" data-original="#99ebfa" class=""></path><path fill="#ffffff" d="M496.114 392.367h-43.112c-11.046 0-20-8.954-20-20s8.954-20 20-20h29.123z" opacity="1" data-original="#ffffff" class=""></path><path fill="#ccf5fc" d="M332.825 10.002h-153.65c-37.846 0-68.526 30.68-68.526 68.526v111.423c0 37.846 30.68 68.526 68.526 68.526h48.52L256 307.501l28.304-49.025h48.52c37.846 0 68.526-30.68 68.526-68.526V78.528c.001-37.846-30.68-68.526-68.525-68.526z" opacity="1" data-original="#ccf5fc" class=""></path><g fill="#fff"><path d="M123.667 372.367c0-11.046 8.954-20 20-20h23.112c11.046 0 20 8.954 20 20s-8.954 20-20 20h-23.112c-11.046 0-20-8.954-20-20zM226.778 372.367c0-11.046 8.954-20 20-20h23.112c11.046 0 20 8.954 20 20s-8.954 20-20 20h-23.112c-11.045 0-20-8.954-20-20zM329.89 372.367c0-11.046 8.954-20 20-20h23.112c11.046 0 20 8.954 20 20s-8.954 20-20 20H349.89c-11.045 0-20-8.954-20-20z" fill="#ffffff" opacity="1" data-original="#ffffff" class=""></path></g><path fill="#0073e2" d="m308.271 421.205-74.886 80.797h-71.772l48.429-80.797z" opacity="1" data-original="#99ebfa" class=""></path><path fill="#d1a184" d="M327.44 218.478H184.56c-9.32 0-16.876-7.556-16.876-16.876v-94.248c0-9.32 7.556-16.876 16.876-16.876h142.88c9.32 0 16.876 7.556 16.876 16.876v94.248c0 9.32-7.556 16.876-16.876 16.876z" opacity="1" data-original="#d1a184" class=""></path><path fill="#ffcd69" d="M327.44 90.478H184.56c-9.32 0-16.876 7.555-16.876 16.876v19.689c0 9.32 7.556 16.876 16.876 16.876h142.88c9.32 0 16.876-7.555 16.876-16.876v-19.689c0-9.321-7.556-16.876-16.876-16.876z" opacity="1" data-original="#ffcd69"></path><path d="M113.667 372.367c0 16.542 13.458 30 30 30h23.112c16.542 0 30-13.458 30-30s-13.458-30-30-30h-23.112c-16.542 0-30 13.458-30 30zm63.111 0c0 5.514-4.486 10-10 10h-23.112c-5.514 0-10-4.486-10-10s4.486-10 10-10h23.112c5.514 0 10 4.486 10 10zM246.778 402.367h23.112c16.542 0 30-13.458 30-30s-13.458-30-30-30h-23.112c-16.542 0-30 13.458-30 30s13.458 30 30 30zm0-40h23.112c5.514 0 10 4.486 10 10s-4.486 10-10 10h-23.112c-5.514 0-10-4.486-10-10s4.486-10 10-10zM373.002 402.367c16.542 0 30-13.458 30-30s-13.458-30-30-30H349.89c-16.542 0-30 13.458-30 30s13.458 30 30 30zm-33.112-30c0-5.514 4.486-10 10-10h23.112c5.514 0 10 4.486 10 10s-4.486 10-10 10H349.89c-5.514 0-10-4.486-10-10zM354.316 201.602v-94.249c0-14.819-12.056-26.875-26.875-26.875h-27.777v-23.53c0-9.344-7.602-16.946-16.946-16.946h-53.435c-9.344 0-16.946 7.602-16.946 16.946v23.53H184.56c-14.819 0-26.875 12.056-26.875 26.875v94.249c0 14.819 12.056 26.876 26.875 26.876h142.88c14.82 0 26.876-12.057 26.876-26.876zm-121.979-141.6h47.326v20h-47.326zm-54.653 47.351a6.883 6.883 0 0 1 6.875-6.875H327.44a6.883 6.883 0 0 1 6.875 6.875v19.689a6.883 6.883 0 0 1-6.875 6.876H184.56a6.883 6.883 0 0 1-6.875-6.876v-19.689zm0 94.249v-48.579c2.196.582 4.499.895 6.875.895H246v5.345c0 5.523 4.477 10 10 10s10-4.477 10-10v-5.345h61.44c2.376 0 4.68-.313 6.875-.895v48.579a6.883 6.883 0 0 1-6.875 6.876H184.56a6.884 6.884 0 0 1-6.876-6.876z" fill="#000000" opacity="1" data-original="#000000" class=""></path><circle cx="170.47" cy="308.414" r="10" fill="#000000" opacity="1" data-original="#000000" class=""></circle><path d="M510.441 384.928c-13.051-50.966-58.908-86.561-111.518-86.561H272.821l17.257-29.89h42.747c43.299 0 78.526-35.227 78.526-78.526V78.528c0-43.299-35.227-78.526-78.526-78.526h-153.65c-43.299 0-78.526 35.227-78.526 78.526V189.95c0 43.3 35.227 78.526 78.526 78.526h42.747l17.257 29.89h-23.706c-5.523 0-10 4.477-10 10s4.477 10 10 10h183.45c23.948 0 46.192 8.941 63.154 24h-9.075c-16.542 0-30 13.458-30 30s13.458 30 30 30h38.517a29.14 29.14 0 0 1-5.678 12.693c-5.578 7.186-13.993 11.307-23.089 11.307H316.837c2.4-3.974 1.77-9.217-1.768-12.497-4.051-3.754-10.378-3.514-14.132.537l-71.917 77.595h-49.754l39.353-65.656c2.839-4.737 1.301-10.879-3.436-13.718-4.737-2.84-10.879-1.302-13.718 3.436l-6.176 10.303h-84.338C60.8 426.367 20 385.567 20 335.416V218.15h36.682l27.607 93.062a10 10 0 0 0 9.587 7.156h31.597c5.523 0 10-4.477 10-10s-4.477-10-10-10H101.34l-27.607-93.062a10 10 0 0 0-9.587-7.156H10c-5.523 0-10 4.477-10 10v127.266c0 61.179 49.772 110.951 110.951 110.951h72.35l-30.265 50.494a10 10 0 0 0 8.577 15.141h71.772c2.784 0 5.442-1.161 7.334-3.202l57.865-62.433h164.167c15.32 0 29.494-6.941 38.888-19.043 9.395-12.102 12.603-27.555 8.802-42.396zM227.696 248.477h-48.521c-32.271 0-58.526-26.255-58.526-58.526V78.528c0-32.271 26.254-58.526 58.526-58.526h153.649c32.271 0 58.526 26.255 58.526 58.526V189.95c0 32.271-26.254 58.526-58.526 58.526h-48.521a9.999 9.999 0 0 0-8.66 5L256 287.501l-19.644-34.024a9.999 9.999 0 0 0-8.66-5zm215.306 123.89c0-5.514 4.486-10 10-10h26.129a94.836 94.836 0 0 1 9.673 20h-35.802c-5.514 0-10-4.486-10-10z" fill="#000000" opacity="1" data-original="#000000" class=""></path></g></svg>